<svg id="Layer_1" data-name="Layer 1" xmlns="http://www.w3.org/2000/svg" viewBox="0 0 313.94 166.11"><defs><style>.cls-1{fill:#fff;}</style></defs><path class="cls-1" d="M295.47,3.06H21.53a20,20,0,0,0-20,20V123a20,20,0,0,0,20,20H143.39l15.11,26.18L173.61,143H295.47a20,20,0,0,0,20-20V23.06A20,20,0,0,0,295.47,3.06Z" transform="translate(-1.53 -3.06)"/><path d="M34.78,56.76a.73.73,0,0,1-.63-.28,1,1,0,0,1-.13-.76L35.55,46h-3.5c-.55,0-.82-.21-.82-.62a.84.84,0,0,1,.25-.65.88.88,0,0,1,.65-.23h9q.81,0,.81.6a.9.9,0,0,1-.24.67A.93.93,0,0,1,41,46H37.35l-1.57,9.92A.94.94,0,0,1,34.78,56.76Z" transform="translate(-1.53 -3.06)"/><path d="M42.79,56.76a.68.68,0,0,1-.6-.28,1,1,0,0,1-.11-.76L43.74,45.2a.9.9,0,0,1,1-.86.71.71,0,0,1,.61.25,1,1,0,0,1,.12.75l-.67,4.2A3.12,3.12,0,0,1,46,48.44a3.69,3.69,0,0,1,1.72-.39,2.59,2.59,0,0,1,2.1.86,3.23,3.23,0,0,1,.44,2.65l-.67,4.33a.91.91,0,0,1-1,.87.73.73,0,0,1-.62-.27,1,1,0,0,1-.11-.75l.66-4.15c.23-1.43-.24-2.14-1.42-2.14a2.43,2.43,0,0,0-1.84.72,3.53,3.53,0,0,0-.87,1.92l-.61,3.8A.9.9,0,0,1,42.79,56.76Z" transform="translate(-1.53 -3.06)"/><path d="M52.72,56.76a.65.65,0,0,1-.58-.27,1,1,0,0,1-.12-.75L53.11,49a.91.91,0,0,1,1-.87.65.65,0,0,1,.58.27,1,1,0,0,1,.13.75l-1.09,6.79A.93.93,0,0,1,52.72,56.76ZM54.4,46.32c-.67,0-1-.3-.93-.91a1.08,1.08,0,0,1,1.24-1.06,1,1,0,0,1,.74.24.79.79,0,0,1,.21.68A1.1,1.1,0,0,1,54.4,46.32Z" transform="translate(-1.53 -3.06)"/><path d="M59.39,56.79a7.4,7.4,0,0,1-1.57-.17,4.9,4.9,0,0,1-1.31-.49.82.82,0,0,1-.42-.45.74.74,0,0,1,0-.51.62.62,0,0,1,.35-.34.66.66,0,0,1,.57.1,5.35,5.35,0,0,0,1.15.44,4.72,4.72,0,0,0,1.23.16,2.35,2.35,0,0,0,1.37-.34,1.07,1.07,0,0,0,.48-.94q0-.8-1-1l-1.61-.36a2.68,2.68,0,0,1-1.41-.76,1.94,1.94,0,0,1-.51-1.37,2.34,2.34,0,0,1,.43-1.36,3,3,0,0,1,1.24-1,4.7,4.7,0,0,1,1.94-.36,5.19,5.19,0,0,1,1.37.19,4.33,4.33,0,0,1,1.21.52.88.88,0,0,1,.38.47.68.68,0,0,1,0,.49.52.52,0,0,1-.36.28.73.73,0,0,1-.58-.12,3.81,3.81,0,0,0-2-.55,2.41,2.41,0,0,0-1.41.36,1.14,1.14,0,0,0-.51,1,1,1,0,0,0,.22.63,1.23,1.23,0,0,0,.73.37l1.6.36a3,3,0,0,1,1.5.75,1.87,1.87,0,0,1,.53,1.36,2.28,2.28,0,0,1-1,2A4.16,4.16,0,0,1,59.39,56.79Z" transform="translate(-1.53 -3.06)"/><path d="M71.43,44.68a.61.61,0,0,1,.59-.21.48.48,0,0,1,.36.33.58.58,0,0,1-.22.56,2.81,2.81,0,0,0-.71,1,1.13,1.13,0,0,1,.67.36,1.16,1.16,0,0,1-.05,1.5,1,1,0,0,1-.79.3,1,1,0,0,1-.78-.33,1.34,1.34,0,0,1-.27-.88A3.6,3.6,0,0,1,71.43,44.68Zm3.1,0a.59.59,0,0,1,.58-.21.47.47,0,0,1,.36.33.58.58,0,0,1-.22.56,2.94,2.94,0,0,0-.71,1,1.13,1.13,0,0,1,.67.36,1,1,0,0,1,.25.71,1.1,1.1,0,0,1-.29.79,1.07,1.07,0,0,1-.8.3,1,1,0,0,1-.78-.33,1.34,1.34,0,0,1-.27-.88A3.57,3.57,0,0,1,74.53,44.68Z" transform="translate(-1.53 -3.06)"/><path d="M79.36,56.79A2.25,2.25,0,0,1,77.44,56a2.87,2.87,0,0,1-.37-2.25l1.38-8.57a.9.9,0,0,1,1-.86.7.7,0,0,1,.59.26,1.11,1.11,0,0,1,.12.76l-1.35,8.39A1.74,1.74,0,0,0,79,55a1,1,0,0,0,.9.38,1.09,1.09,0,0,0,.34,0l.23,0a.28.28,0,0,1,.23.1.63.63,0,0,1,.09.4,1,1,0,0,1-.19.63.88.88,0,0,1-.44.29,1.49,1.49,0,0,1-.36.06A2.89,2.89,0,0,1,79.36,56.79Z" transform="translate(-1.53 -3.06)"/><path d="M86,56.79a4.19,4.19,0,0,1-3-1A3.55,3.55,0,0,1,82,53a5.53,5.53,0,0,1,.57-2.52,4.47,4.47,0,0,1,1.6-1.79,4.23,4.23,0,0,1,2.39-.67,3.34,3.34,0,0,1,2.14.61,3.09,3.09,0,0,1,1.07,1.58,5.15,5.15,0,0,1,.16,2,.58.58,0,0,1-.17.43.66.66,0,0,1-.4.11h-5.7a2.45,2.45,0,0,0,.58,1.92,2.51,2.51,0,0,0,1.93.7,4.92,4.92,0,0,0,1.14-.13,3.79,3.79,0,0,0,1-.45.75.75,0,0,1,.59-.14.51.51,0,0,1,.35.29.64.64,0,0,1,0,.49,1,1,0,0,1-.38.48,4.14,4.14,0,0,1-1.4.61A6.49,6.49,0,0,1,86,56.79Zm.51-7.51a2.59,2.59,0,0,0-1.38.35,2.7,2.7,0,0,0-.89.92,3.88,3.88,0,0,0-.46,1.2h4.73A2.73,2.73,0,0,0,88.14,50,1.8,1.8,0,0,0,86.52,49.28Z" transform="translate(-1.53 -3.06)"/><path d="M94.29,56.76a1,1,0,0,1-.67-.22,1.29,1.29,0,0,1-.37-.63l-1.79-6.6a1,1,0,0,1,.07-.88.91.91,0,0,1,1.27-.16,1.06,1.06,0,0,1,.31.61l1.4,5.73,3.39-5.92a1.39,1.39,0,0,1,.41-.47,1,1,0,0,1,.54-.14.69.69,0,0,1,.67.34.78.78,0,0,1-.1.79l-4.06,6.87A1.23,1.23,0,0,1,94.29,56.76Z" transform="translate(-1.53 -3.06)"/><path d="M104,56.79a4.2,4.2,0,0,1-3-1A3.58,3.58,0,0,1,100,53a5.53,5.53,0,0,1,.57-2.52,4.52,4.52,0,0,1,1.59-1.79,4.29,4.29,0,0,1,2.4-.67,3.36,3.36,0,0,1,2.14.61,3.08,3.08,0,0,1,1.06,1.58,5,5,0,0,1,.16,2,.58.58,0,0,1-.17.43.64.64,0,0,1-.4.11h-5.7a2.48,2.48,0,0,0,.58,1.92,2.54,2.54,0,0,0,1.93.7,4.92,4.92,0,0,0,1.14-.13,3.79,3.79,0,0,0,1-.45.75.75,0,0,1,.59-.14.51.51,0,0,1,.35.29.64.64,0,0,1,0,.49.93.93,0,0,1-.37.48,4.28,4.28,0,0,1-1.41.61A6.47,6.47,0,0,1,104,56.79Zm.5-7.51a2.56,2.56,0,0,0-1.37.35,2.53,2.53,0,0,0-.89.92,3.9,3.9,0,0,0-.47,1.2h4.73a2.73,2.73,0,0,0-.38-1.76A1.8,1.8,0,0,0,104.5,49.28Z" transform="translate(-1.53 -3.06)"/><path d="M111.82,56.79A2.25,2.25,0,0,1,109.9,56a2.87,2.87,0,0,1-.37-2.25l1.38-8.57a.9.9,0,0,1,1-.86.7.7,0,0,1,.59.26,1.11,1.11,0,0,1,.12.76l-1.35,8.39a1.74,1.74,0,0,0,.15,1.23,1,1,0,0,0,.9.38,1.05,1.05,0,0,0,.34,0l.23,0a.28.28,0,0,1,.23.1.63.63,0,0,1,.09.4.9.9,0,0,1-.19.63.88.88,0,0,1-.44.29,1.49,1.49,0,0,1-.36.06A2.89,2.89,0,0,1,111.82,56.79Z" transform="translate(-1.53 -3.06)"/><path d="M117.11,56.79a2.27,2.27,0,0,1-1.93-.77,2.91,2.91,0,0,1-.37-2.25l1.38-8.57a.9.9,0,0,1,1-.86.67.67,0,0,1,.58.26,1,1,0,0,1,.12.76l-1.34,8.39A1.81,1.81,0,0,0,116.7,55a1,1,0,0,0,.91.38,1.09,1.09,0,0,0,.34,0l.23,0a.29.29,0,0,1,.23.1.72.72,0,0,1,.08.4,1,1,0,0,1-.18.63.92.92,0,0,1-.44.29,1.49,1.49,0,0,1-.36.06A3,3,0,0,1,117.11,56.79Z" transform="translate(-1.53 -3.06)"/><path d="M123.76,56.79a4.17,4.17,0,0,1-3-1A3.55,3.55,0,0,1,119.72,53a5.53,5.53,0,0,1,.57-2.52,4.47,4.47,0,0,1,1.6-1.79,4.23,4.23,0,0,1,2.39-.67,3.36,3.36,0,0,1,2.14.61,3.08,3.08,0,0,1,1.06,1.58,5.15,5.15,0,0,1,.17,2c0,.22-.08.37-.17.43a.68.68,0,0,1-.4.11h-5.7a2.41,2.41,0,0,0,.58,1.92,2.5,2.5,0,0,0,1.92.7,4.92,4.92,0,0,0,1.14-.13,4,4,0,0,0,1.06-.45.72.72,0,0,1,.58-.14A.55.55,0,0,1,127,55a.69.69,0,0,1,0,.49.88.88,0,0,1-.37.48,4.1,4.1,0,0,1-1.41.61A6.41,6.41,0,0,1,123.76,56.79Zm.5-7.51a2.56,2.56,0,0,0-1.37.35,2.61,2.61,0,0,0-.89.92,3.9,3.9,0,0,0-.47,1.2h4.74a2.79,2.79,0,0,0-.38-1.76A1.82,1.82,0,0,0,124.26,49.28Z" transform="translate(-1.53 -3.06)"/><path d="M132.19,56.79a3,3,0,0,1-2.33-1,3.79,3.79,0,0,1-.88-2.64,6.38,6.38,0,0,1,.5-2.58,4.36,4.36,0,0,1,1.45-1.86,3.76,3.76,0,0,1,2.28-.69,3.22,3.22,0,0,1,1.67.43,2.54,2.54,0,0,1,1.08,1.3l.72-4.61a.89.89,0,0,1,1-.83c.58,0,.82.32.71,1l-1.67,10.56a.93.93,0,0,1-1,.88.64.64,0,0,1-.59-.28,1,1,0,0,1-.09-.76l.09-.48a3.42,3.42,0,0,1-2.94,1.55Zm.64-1.35a2.23,2.23,0,0,0,1.48-.5,3.05,3.05,0,0,0,.93-1.34,5.17,5.17,0,0,0,.32-1.85A2.47,2.47,0,0,0,135,50a2,2,0,0,0-1.52-.6,2.32,2.32,0,0,0-1.5.5,3,3,0,0,0-.93,1.33,5.28,5.28,0,0,0-.32,1.87,2.47,2.47,0,0,0,.55,1.74A2,2,0,0,0,132.83,55.44Z" transform="translate(-1.53 -3.06)"/><path d="M140.41,52.73c-.5,0-.76-.19-.76-.57a.94.94,0,0,1,.2-.59.71.71,0,0,1,.58-.24h3.72c.5,0,.76.19.76.57a.87.87,0,0,1-.21.59.75.75,0,0,1-.59.24Z" transform="translate(-1.53 -3.06)"/><path d="M149.47,56.79a2.58,2.58,0,0,1-2.09-.85,3.28,3.28,0,0,1-.42-2.67l.69-4.37a.87.87,0,0,1,1-.82.75.75,0,0,1,.62.26.84.84,0,0,1,.14.71l-.67,4.22c-.21,1.41.25,2.12,1.38,2.12a2.37,2.37,0,0,0,1.77-.71,3.56,3.56,0,0,0,.87-1.93l.61-3.85a.86.86,0,0,1,.95-.82.77.77,0,0,1,.63.26,1,1,0,0,1,.13.71L154,55.93a.87.87,0,0,1-1,.83c-.58,0-.82-.31-.73-.92l.09-.57A3.23,3.23,0,0,1,149.47,56.79Z" transform="translate(-1.53 -3.06)"/><path d="M156.67,59.87a.72.72,0,0,1-.61-.26.94.94,0,0,1-.12-.75L157.52,49a.92.92,0,0,1,1-.9.65.65,0,0,1,.58.27,1,1,0,0,1,.09.75l-.07.47a3.3,3.3,0,0,1,1.23-1.12,3.44,3.44,0,0,1,1.67-.4,3,3,0,0,1,2.34,1,3.83,3.83,0,0,1,.88,2.65,6.46,6.46,0,0,1-.5,2.56,4.44,4.44,0,0,1-1.45,1.86,3.71,3.71,0,0,1-2.27.69,3.38,3.38,0,0,1-1.66-.41,2.49,2.49,0,0,1-1.08-1.26L157.65,59A.9.9,0,0,1,156.67,59.87Zm4.08-4.43a2.21,2.21,0,0,0,1.48-.5,3.14,3.14,0,0,0,.93-1.34,5.17,5.17,0,0,0,.32-1.85,2.52,2.52,0,0,0-.55-1.74,2,2,0,0,0-1.53-.6,2.31,2.31,0,0,0-1.49.5,3,3,0,0,0-.93,1.33,5.06,5.06,0,0,0-.32,1.87,2.47,2.47,0,0,0,.55,1.74A2,2,0,0,0,160.75,55.44Z" transform="translate(-1.53 -3.06)"/><path d="M168.31,48.27a.58.58,0,0,1-.57.21.45.45,0,0,1-.35-.33.6.6,0,0,1,.21-.57,2.53,2.53,0,0,0,.71-1,1.09,1.09,0,0,1-.68-.35,1,1,0,0,1-.25-.73,1.1,1.1,0,0,1,.29-.79,1.07,1.07,0,0,1,.8-.3,1,1,0,0,1,.79.33,1.27,1.27,0,0,1,.28.88A3.63,3.63,0,0,1,168.31,48.27Zm3.09,0a.57.57,0,0,1-.56.21.45.45,0,0,1-.36-.33.58.58,0,0,1,.22-.57,2.6,2.6,0,0,0,.7-1,1,1,0,0,1-.93-1.08,1.06,1.06,0,0,1,.3-.79,1,1,0,0,1,.79-.3,1,1,0,0,1,.8.33,1.32,1.32,0,0,1,.27.88A3.63,3.63,0,0,1,171.4,48.27Z" transform="translate(-1.53 -3.06)"/><path d="M178.47,56.76a.68.68,0,0,1-.59-.27,1.09,1.09,0,0,1-.12-.75L178.85,49a.92.92,0,0,1,1-.87.67.67,0,0,1,.59.27,1,1,0,0,1,.12.75l-1.09,6.79A.91.91,0,0,1,178.47,56.76Zm1.68-10.44c-.67,0-1-.3-.94-.91a1.09,1.09,0,0,1,1.25-1.06,1,1,0,0,1,.74.24.85.85,0,0,1,.21.68A1.1,1.1,0,0,1,180.15,46.32Z" transform="translate(-1.53 -3.06)"/><path d="M182.69,56.76a.68.68,0,0,1-.59-.28,1,1,0,0,1-.12-.76L183.05,49a.9.9,0,0,1,1-.87.7.7,0,0,1,.57.25.86.86,0,0,1,.1.72l-.08.57a3.19,3.19,0,0,1,1.23-1.16,3.66,3.66,0,0,1,1.76-.41,2.59,2.59,0,0,1,2.1.86,3.31,3.31,0,0,1,.44,2.65l-.68,4.33a.91.91,0,0,1-1,.87.7.7,0,0,1-.61-.27.91.91,0,0,1-.11-.75l.65-4.15c.23-1.43-.24-2.14-1.42-2.14a2.43,2.43,0,0,0-1.84.72,3.53,3.53,0,0,0-.87,1.92l-.6,3.8A.91.91,0,0,1,182.69,56.76Z" transform="translate(-1.53 -3.06)"/><path d="M195.09,56.79a7.33,7.33,0,0,1-1.57-.17,4.77,4.77,0,0,1-1.31-.49.82.82,0,0,1-.42-.45.69.69,0,0,1,0-.51.6.6,0,0,1,.34-.34.66.66,0,0,1,.57.1,5.43,5.43,0,0,0,1.16.44,4.61,4.61,0,0,0,1.23.16,2.32,2.32,0,0,0,1.36-.34,1.08,1.08,0,0,0,.49-.94c0-.53-.36-.87-1.06-1l-1.6-.36a2.68,2.68,0,0,1-1.41-.76,1.94,1.94,0,0,1-.51-1.37,2.27,2.27,0,0,1,.43-1.36,3,3,0,0,1,1.23-1,4.78,4.78,0,0,1,2-.36,5.06,5.06,0,0,1,1.36.19,4.09,4.09,0,0,1,1.21.52.8.8,0,0,1,.38.47.68.68,0,0,1,0,.49.57.57,0,0,1-.36.28.73.73,0,0,1-.58-.12,3.85,3.85,0,0,0-2.06-.55,2.41,2.41,0,0,0-1.41.36,1.14,1.14,0,0,0-.51,1,1,1,0,0,0,.23.63,1.23,1.23,0,0,0,.72.37l1.61.36a3.08,3.08,0,0,1,1.5.75,1.86,1.86,0,0,1,.52,1.36,2.28,2.28,0,0,1-1,2A4.12,4.12,0,0,1,195.09,56.79Z" transform="translate(-1.53 -3.06)"/><path d="M203.76,56.79A2.5,2.5,0,0,1,201,53.63l.66-4.08h-.94c-.49,0-.74-.19-.74-.57a.73.73,0,0,1,.24-.58,1,1,0,0,1,.66-.19h1l.29-1.85a.86.86,0,0,1,1-.81c.61,0,.86.32.76,1l-.26,1.7h1.9c.5,0,.74.19.74.57a.78.78,0,0,1-.21.56.86.86,0,0,1-.62.21h-2l-.64,3.94a1.71,1.71,0,0,0,.23,1.43,1.43,1.43,0,0,0,1.12.42,1.81,1.81,0,0,0,.52-.06,1.23,1.23,0,0,1,.36-.06.4.4,0,0,1,.3.1.57.57,0,0,1,.1.4,1.11,1.11,0,0,1-.15.66.79.79,0,0,1-.42.27,2.4,2.4,0,0,1-.49.11Z" transform="translate(-1.53 -3.06)"/><path d="M209.19,56.79a2.82,2.82,0,0,1-1.38-.34,2.57,2.57,0,0,1-1-.91,2.29,2.29,0,0,1-.38-1.31,2,2,0,0,1,1.14-1.93,8.14,8.14,0,0,1,3.61-.6h1.19l.07-.42a1.68,1.68,0,0,0-.26-1.4,1.83,1.83,0,0,0-1.43-.48,5.52,5.52,0,0,0-1.17.12,4.67,4.67,0,0,0-1.13.41.72.72,0,0,1-.59.08.61.61,0,0,1-.37-.33.57.57,0,0,1,0-.51.9.9,0,0,1,.51-.46,6.62,6.62,0,0,1,1.46-.5,7.79,7.79,0,0,1,1.49-.16,3,3,0,0,1,2.62,1,3.43,3.43,0,0,1,.47,2.65l-.65,4.16a.89.89,0,0,1-1,.87.67.67,0,0,1-.57-.24.93.93,0,0,1-.12-.73l.07-.43a2.71,2.71,0,0,1-1.14,1.09A3.27,3.27,0,0,1,209.19,56.79Zm.5-1.24a2.36,2.36,0,0,0,1.56-.58,2.51,2.51,0,0,0,.84-1.62l.09-.58h-.87a7.09,7.09,0,0,0-2.49.29,1.07,1.07,0,0,0-.69,1.07,1.31,1.31,0,0,0,.46,1.06A1.73,1.73,0,0,0,209.69,55.55Z" transform="translate(-1.53 -3.06)"/><path d="M216.49,56.76a.66.66,0,0,1-.58-.28,1,1,0,0,1-.12-.76L216.86,49a.9.9,0,0,1,1-.87.7.7,0,0,1,.57.25.86.86,0,0,1,.1.72l-.08.57a3.23,3.23,0,0,1,1.22-1.16,3.72,3.72,0,0,1,1.76-.41,2.57,2.57,0,0,1,2.1.86,3.23,3.23,0,0,1,.44,2.65l-.67,4.33a.92.92,0,0,1-1,.87.7.7,0,0,1-.61-.27,1,1,0,0,1-.12-.75l.66-4.15c.23-1.43-.24-2.14-1.42-2.14a2.43,2.43,0,0,0-1.84.72,3.53,3.53,0,0,0-.87,1.92l-.6,3.8A.91.91,0,0,1,216.49,56.76Z" transform="translate(-1.53 -3.06)"/><path d="M229.3,56.79a2.82,2.82,0,0,1-2.29-.86,2.77,2.77,0,0,1-.5-2.3l.66-4.08h-.93q-.75,0-.75-.57a.7.7,0,0,1,.25-.58,1,1,0,0,1,.65-.19h1l.29-1.85a.86.86,0,0,1,1-.81c.61,0,.87.32.76,1l-.26,1.7H231q.75,0,.75.57a.79.79,0,0,1-.22.56.84.84,0,0,1-.61.21h-2l-.64,3.94a1.71,1.71,0,0,0,.22,1.43,1.43,1.43,0,0,0,1.12.42,1.76,1.76,0,0,0,.52-.06,1.23,1.23,0,0,1,.36-.06.4.4,0,0,1,.3.1.57.57,0,0,1,.1.4,1.2,1.2,0,0,1-.14.66.82.82,0,0,1-.43.27,2.25,2.25,0,0,1-.49.11Z" transform="translate(-1.53 -3.06)"/><path d="M237.31,56.76a.69.69,0,0,1-.6-.26,1,1,0,0,1-.13-.73l1.09-6.84a.9.9,0,0,1,1-.85.7.7,0,0,1,.59.26,1,1,0,0,1,.12.73l-.09.55a2.89,2.89,0,0,1,1.16-1.14,4,4,0,0,1,1.64-.45.79.79,0,0,1,.58.13.71.71,0,0,1,.14.48.9.9,0,0,1-.2.66,1,1,0,0,1-.68.25l-.41.05a2.72,2.72,0,0,0-1.84.77,3.32,3.32,0,0,0-.74,1.74l-.6,3.82A.9.9,0,0,1,237.31,56.76Z" transform="translate(-1.53 -3.06)"/><path d="M245.64,56.79a2.82,2.82,0,0,1-1.38-.34,2.57,2.57,0,0,1-1-.91,2.29,2.29,0,0,1-.38-1.31A2,2,0,0,1,244,52.3a8.14,8.14,0,0,1,3.61-.6h1.19l.07-.42a1.68,1.68,0,0,0-.26-1.4,1.84,1.84,0,0,0-1.44-.48,5.5,5.5,0,0,0-1.16.12,4.67,4.67,0,0,0-1.13.41.72.72,0,0,1-.59.08.61.61,0,0,1-.37-.33.57.57,0,0,1,0-.51.9.9,0,0,1,.51-.46,6.62,6.62,0,0,1,1.46-.5,7.79,7.79,0,0,1,1.49-.16,3,3,0,0,1,2.62,1,3.43,3.43,0,0,1,.47,2.65l-.65,4.16a.89.89,0,0,1-.95.87.67.67,0,0,1-.57-.24.93.93,0,0,1-.12-.73l.07-.43a2.71,2.71,0,0,1-1.14,1.09A3.27,3.27,0,0,1,245.64,56.79Zm.5-1.24A2.38,2.38,0,0,0,247.7,55a2.51,2.51,0,0,0,.84-1.62l.09-.58h-.87a7.09,7.09,0,0,0-2.49.29,1.07,1.07,0,0,0-.69,1.07,1.31,1.31,0,0,0,.46,1.06A1.73,1.73,0,0,0,246.14,55.55Z" transform="translate(-1.53 -3.06)"/><path d="M253,56.76a.7.7,0,0,1-.59-.26,1,1,0,0,1-.12-.73l1.09-6.84a.88.88,0,0,1,1-.85.67.67,0,0,1,.59.26,1,1,0,0,1,.12.73l-.09.52a3.26,3.26,0,0,1,1.19-1.15,3.18,3.18,0,0,1,1.54-.39A2.19,2.19,0,0,1,260,49.78a3.18,3.18,0,0,1,1.21-1.28,3.44,3.44,0,0,1,1.78-.45,2.41,2.41,0,0,1,2,.86,3.27,3.27,0,0,1,.4,2.66l-.69,4.36a.88.88,0,0,1-1,.83.73.73,0,0,1-.61-.26,1,1,0,0,1-.13-.73l.66-4.25c.22-1.38-.21-2.07-1.28-2.07a2,2,0,0,0-1.59.7,3.86,3.86,0,0,0-.83,1.94l-.59,3.84a.9.9,0,0,1-1,.83.72.72,0,0,1-.61-.26.94.94,0,0,1-.13-.73l.69-4.25c.21-1.38-.22-2.07-1.28-2.07a2.09,2.09,0,0,0-1.61.7,3.61,3.61,0,0,0-.82,1.94L254,55.93A.9.9,0,0,1,253,56.76Z" transform="translate(-1.53 -3.06)"/><path d="M271.24,56.79a4.22,4.22,0,0,1-3-1A3.58,3.58,0,0,1,267.2,53a5.53,5.53,0,0,1,.57-2.52,4.52,4.52,0,0,1,1.59-1.79,4.29,4.29,0,0,1,2.4-.67,3.36,3.36,0,0,1,2.14.61A3.08,3.08,0,0,1,275,50.24a5.15,5.15,0,0,1,.17,2c0,.22-.08.37-.18.43a.62.62,0,0,1-.39.11h-5.71a2.48,2.48,0,0,0,.58,1.92,2.54,2.54,0,0,0,1.93.7,4.92,4.92,0,0,0,1.14-.13,3.79,3.79,0,0,0,1.05-.45.75.75,0,0,1,.59-.14.55.55,0,0,1,.36.29.69.69,0,0,1,0,.49.93.93,0,0,1-.37.48,4.1,4.1,0,0,1-1.41.61A6.41,6.41,0,0,1,271.24,56.79Zm.5-7.51a2.56,2.56,0,0,0-1.37.35,2.61,2.61,0,0,0-.89.92,3.9,3.9,0,0,0-.47,1.2h4.73a2.67,2.67,0,0,0-.38-1.76A1.8,1.8,0,0,0,271.74,49.28Z" transform="translate(-1.53 -3.06)"/><path d="M277.18,56.76a.69.69,0,0,1-.59-.28,1.12,1.12,0,0,1-.12-.76L277.54,49a.92.92,0,0,1,1-.87.7.7,0,0,1,.57.25.9.9,0,0,1,.1.72l-.09.57a3.26,3.26,0,0,1,1.23-1.16,3.69,3.69,0,0,1,1.76-.41,2.59,2.59,0,0,1,2.1.86,3.23,3.23,0,0,1,.44,2.65L284,55.89a.92.92,0,0,1-1,.87.73.73,0,0,1-.62-.27,1,1,0,0,1-.11-.75l.66-4.15c.23-1.43-.24-2.14-1.42-2.14a2.43,2.43,0,0,0-1.84.72,3.53,3.53,0,0,0-.87,1.92l-.61,3.8A.9.9,0,0,1,277.18,56.76Z" transform="translate(-1.53 -3.06)"/><path d="M27.26,77.49a.68.68,0,0,1-.59-.27,1.09,1.09,0,0,1-.12-.75l1.09-6.79a.91.91,0,0,1,1-.86.67.67,0,0,1,.59.26,1,1,0,0,1,.12.75l-1.09,6.79A.91.91,0,0,1,27.26,77.49Zm1.68-10.44c-.67,0-1-.3-.94-.91a1.1,1.1,0,0,1,1.25-1.06,1,1,0,0,1,.74.25.82.82,0,0,1,.21.67A1.1,1.1,0,0,1,28.94,67.05Z" transform="translate(-1.53 -3.06)"/><path d="M33.93,77.52a7.33,7.33,0,0,1-1.57-.17A5.35,5.35,0,0,1,31,76.87a.89.89,0,0,1-.41-.46.69.69,0,0,1,0-.51.63.63,0,0,1,.34-.34.66.66,0,0,1,.57.1,6.06,6.06,0,0,0,1.16.45,5.05,5.05,0,0,0,1.23.15,2.32,2.32,0,0,0,1.36-.34A1.08,1.08,0,0,0,35.8,75c0-.53-.36-.87-1.06-1l-1.6-.36a2.68,2.68,0,0,1-1.41-.76,1.94,1.94,0,0,1-.51-1.37,2.27,2.27,0,0,1,.43-1.36,3.08,3.08,0,0,1,1.24-1,4.7,4.7,0,0,1,1.94-.36,5.06,5.06,0,0,1,1.36.19,4.09,4.09,0,0,1,1.21.52.83.83,0,0,1,.38.47.68.68,0,0,1,0,.49.57.57,0,0,1-.36.28.73.73,0,0,1-.58-.12,3.85,3.85,0,0,0-2.06-.55,2.41,2.41,0,0,0-1.41.36,1.14,1.14,0,0,0-.51,1,1,1,0,0,0,.23.63,1.23,1.23,0,0,0,.72.37l1.61.36a3,3,0,0,1,1.5.76,1.82,1.82,0,0,1,.52,1.35,2.28,2.28,0,0,1-1,2A4.12,4.12,0,0,1,33.93,77.52Z" transform="translate(-1.53 -3.06)"/><path d="M47.25,77.52A2.83,2.83,0,0,1,45,76.66a2.77,2.77,0,0,1-.49-2.3l.65-4.08h-.93c-.49,0-.74-.19-.74-.57a.73.73,0,0,1,.24-.58,1,1,0,0,1,.66-.19h1l.3-1.85a.85.85,0,0,1,.95-.81c.61,0,.86.32.76,1l-.26,1.7H49c.49,0,.74.19.74.57a.75.75,0,0,1-.22.56.82.82,0,0,1-.61.21h-2l-.64,3.94a1.75,1.75,0,0,0,.22,1.43,1.46,1.46,0,0,0,1.13.42A1.81,1.81,0,0,0,48.1,76a1.13,1.13,0,0,1,.36-.06.39.39,0,0,1,.29.1.58.58,0,0,1,.11.4,1.11,1.11,0,0,1-.15.66.83.83,0,0,1-.42.27,2.36,2.36,0,0,1-.5.11Z" transform="translate(-1.53 -3.06)"/><path d="M50.86,77.49a.65.65,0,0,1-.6-.28,1,1,0,0,1-.11-.76l1.66-10.52a.9.9,0,0,1,1-.86.69.69,0,0,1,.61.26,1,1,0,0,1,.12.74l-.68,4.2a3.15,3.15,0,0,1,1.22-1.1,3.69,3.69,0,0,1,1.72-.39,2.59,2.59,0,0,1,2.1.86,3.27,3.27,0,0,1,.44,2.65l-.67,4.33a.91.91,0,0,1-1,.87.71.71,0,0,1-.61-.27,1,1,0,0,1-.11-.75l.66-4.15c.23-1.43-.25-2.14-1.42-2.14a2.41,2.41,0,0,0-1.84.72,3.4,3.4,0,0,0-.87,1.92l-.61,3.8A.9.9,0,0,1,50.86,77.49Z" transform="translate(-1.53 -3.06)"/><path d="M64.14,77.52a4.15,4.15,0,0,1-3-1,3.55,3.55,0,0,1-1.09-2.75,5.53,5.53,0,0,1,.57-2.52,4.47,4.47,0,0,1,1.6-1.79,4.23,4.23,0,0,1,2.39-.67,3.34,3.34,0,0,1,2.14.61A3.09,3.09,0,0,1,67.87,71,5.15,5.15,0,0,1,68,73a.62.62,0,0,1-.17.44.74.74,0,0,1-.4.1h-5.7a2.43,2.43,0,0,0,.58,1.92,2.51,2.51,0,0,0,1.93.7A4.92,4.92,0,0,0,65.41,76a3.79,3.79,0,0,0,1-.45.75.75,0,0,1,.59-.14.51.51,0,0,1,.35.29.64.64,0,0,1,0,.49,1,1,0,0,1-.38.48,4.14,4.14,0,0,1-1.4.61A6,6,0,0,1,64.14,77.52ZM64.65,70a2.59,2.59,0,0,0-1.38.35,2.7,2.7,0,0,0-.89.92,3.88,3.88,0,0,0-.46,1.2h4.73a2.73,2.73,0,0,0-.38-1.76A1.8,1.8,0,0,0,64.65,70Z" transform="translate(-1.53 -3.06)"/><path d="M74.16,80.6a.73.73,0,0,1-.61-.26.92.92,0,0,1-.11-.74L75,69.71a.92.92,0,0,1,1-.89.64.64,0,0,1,.58.26,1,1,0,0,1,.1.75l-.07.47a3.35,3.35,0,0,1,1.22-1.12,3.48,3.48,0,0,1,1.68-.4,3,3,0,0,1,2.33,1,3.79,3.79,0,0,1,.88,2.65,6.29,6.29,0,0,1-.5,2.56,4.34,4.34,0,0,1-1.44,1.86,3.75,3.75,0,0,1-2.27.69,3.41,3.41,0,0,1-1.67-.41,2.49,2.49,0,0,1-1.08-1.26l-.62,3.92A.9.9,0,0,1,74.16,80.6Zm4.08-4.43a2.24,2.24,0,0,0,1.49-.5,3.15,3.15,0,0,0,.92-1.33A5.26,5.26,0,0,0,81,72.48a2.52,2.52,0,0,0-.54-1.74,2,2,0,0,0-1.53-.59,2.31,2.31,0,0,0-1.5.49A3,3,0,0,0,76.47,72a5.28,5.28,0,0,0-.32,1.87,2.47,2.47,0,0,0,.55,1.74A2,2,0,0,0,78.24,76.17Z" transform="translate(-1.53 -3.06)"/><path d="M88.19,77.52a4.13,4.13,0,0,1-3-1,3.55,3.55,0,0,1-1.09-2.75,5.53,5.53,0,0,1,.57-2.52,4.47,4.47,0,0,1,1.6-1.79,4.23,4.23,0,0,1,2.39-.67,3.36,3.36,0,0,1,2.14.61A3.08,3.08,0,0,1,91.91,71a5.15,5.15,0,0,1,.17,2,.62.62,0,0,1-.17.44.76.76,0,0,1-.4.1h-5.7a2.4,2.4,0,0,0,.58,1.92,2.5,2.5,0,0,0,1.92.7A4.92,4.92,0,0,0,89.45,76a4,4,0,0,0,1.06-.45.72.72,0,0,1,.58-.14.55.55,0,0,1,.36.29.69.69,0,0,1,0,.49.88.88,0,0,1-.37.48,4.1,4.1,0,0,1-1.41.61A5.92,5.92,0,0,1,88.19,77.52Zm.5-7.51a2.56,2.56,0,0,0-1.37.35,2.61,2.61,0,0,0-.89.92,3.9,3.9,0,0,0-.47,1.2H90.7a2.79,2.79,0,0,0-.38-1.76A1.82,1.82,0,0,0,88.69,70Z" transform="translate(-1.53 -3.06)"/><path d="M94.13,77.49a.71.71,0,0,1-.6-.26.94.94,0,0,1-.12-.73l1.09-6.84a.89.89,0,0,1,1-.84.68.68,0,0,1,.59.25,1,1,0,0,1,.12.73l-.09.55a3,3,0,0,1,1.16-1.14,4.08,4.08,0,0,1,1.64-.45.79.79,0,0,1,.58.13.66.66,0,0,1,.15.48.9.9,0,0,1-.21.66,1,1,0,0,1-.67.25l-.42.06a2.69,2.69,0,0,0-1.84.76,3.31,3.31,0,0,0-.73,1.74l-.61,3.82A.9.9,0,0,1,94.13,77.49Z" transform="translate(-1.53 -3.06)"/><path d="M101.54,77.49a.65.65,0,0,1-.58-.27,1,1,0,0,1-.12-.75l1-6.19h-.88c-.46,0-.69-.17-.69-.53a.83.83,0,0,1,.21-.6.84.84,0,0,1,.6-.21h1l.08-.54a3.77,3.77,0,0,1,1.14-2.27,4.08,4.08,0,0,1,2.56-1l.54,0a.59.59,0,0,1,.53.17.63.63,0,0,1,.18.45.75.75,0,0,1-.15.46.61.61,0,0,1-.42.25l-.51,0a2.28,2.28,0,0,0-1.47.53,2.24,2.24,0,0,0-.65,1.37l-.09.54h1.61c.46,0,.69.17.69.53a.81.81,0,0,1-.22.6.87.87,0,0,1-.61.21h-1.67l-1,6.34A.93.93,0,0,1,101.54,77.49Z" transform="translate(-1.53 -3.06)"/><path d="M110.13,77.52a4.13,4.13,0,0,1-2.95-1,3.55,3.55,0,0,1-1.09-2.75,5.53,5.53,0,0,1,.57-2.52,4.47,4.47,0,0,1,1.6-1.79,4.23,4.23,0,0,1,2.39-.67,3.36,3.36,0,0,1,2.14.61A3.08,3.08,0,0,1,113.85,71a5.15,5.15,0,0,1,.17,2,.62.62,0,0,1-.18.44.7.7,0,0,1-.39.1h-5.7a2.43,2.43,0,0,0,.57,1.92,2.54,2.54,0,0,0,1.93.7,4.92,4.92,0,0,0,1.14-.13,3.79,3.79,0,0,0,1-.45.75.75,0,0,1,.59-.14.55.55,0,0,1,.36.29.69.69,0,0,1,0,.49.88.88,0,0,1-.37.48,4.1,4.1,0,0,1-1.41.61A5.92,5.92,0,0,1,110.13,77.52Zm.5-7.51a2.56,2.56,0,0,0-1.37.35,2.61,2.61,0,0,0-.89.92,3.9,3.9,0,0,0-.47,1.2h4.73a2.73,2.73,0,0,0-.37-1.76A1.83,1.83,0,0,0,110.63,70Z" transform="translate(-1.53 -3.06)"/><path d="M119.22,77.52a3.78,3.78,0,0,1-2.91-1,3.94,3.94,0,0,1-1-2.74,6.23,6.23,0,0,1,.28-1.82,4.74,4.74,0,0,1,.85-1.58,4.17,4.17,0,0,1,1.44-1.14,4.7,4.7,0,0,1,2.06-.42,5.31,5.31,0,0,1,1.26.16,3.94,3.94,0,0,1,1.06.45.88.88,0,0,1,.45.49.67.67,0,0,1,0,.52.63.63,0,0,1-.35.35.57.57,0,0,1-.54-.07,3.19,3.19,0,0,0-1.76-.52,2.57,2.57,0,0,0-1.69.53,3,3,0,0,0-.94,1.35,5.07,5.07,0,0,0-.29,1.68,2.72,2.72,0,0,0,.53,1.76,2.1,2.1,0,0,0,1.75.66,3.4,3.4,0,0,0,.79-.11,3.66,3.66,0,0,0,.85-.37.58.58,0,0,1,.49-.06.66.66,0,0,1,.34.32.72.72,0,0,1,.06.5.74.74,0,0,1-.37.45,4,4,0,0,1-1.13.48A5.2,5.2,0,0,1,119.22,77.52Z" transform="translate(-1.53 -3.06)"/><path d="M127,77.52a2.83,2.83,0,0,1-2.29-.86,2.77,2.77,0,0,1-.49-2.3l.65-4.08H124c-.5,0-.74-.19-.74-.57a.73.73,0,0,1,.24-.58,1,1,0,0,1,.66-.19h1l.29-1.85a.86.86,0,0,1,1-.81c.61,0,.87.32.76,1l-.25,1.7h1.9c.49,0,.74.19.74.57a.75.75,0,0,1-.22.56.84.84,0,0,1-.61.21h-2L126,74.22a1.71,1.71,0,0,0,.22,1.43,1.46,1.46,0,0,0,1.13.42,1.73,1.73,0,0,0,.51-.06,1.24,1.24,0,0,1,.37-.06.39.39,0,0,1,.29.1.58.58,0,0,1,.1.4,1.12,1.12,0,0,1-.14.66.82.82,0,0,1-.43.27,2.25,2.25,0,0,1-.49.11Z" transform="translate(-1.53 -3.06)"/><path d="M135,77.49a.7.7,0,0,1-.59-.26,1,1,0,0,1-.12-.73l1.09-6.84a.88.88,0,0,1,1-.84.67.67,0,0,1,.59.25,1,1,0,0,1,.12.73l-.09.52a3.26,3.26,0,0,1,1.19-1.15,3.15,3.15,0,0,1,1.54-.39,2.19,2.19,0,0,1,2.33,1.73,3.25,3.25,0,0,1,1.21-1.28,3.44,3.44,0,0,1,1.78-.45,2.41,2.41,0,0,1,2,.86,3.29,3.29,0,0,1,.4,2.67l-.69,4.35a.88.88,0,0,1-1,.83.73.73,0,0,1-.61-.26.94.94,0,0,1-.13-.73l.66-4.25c.22-1.38-.21-2.07-1.28-2.07a2,2,0,0,0-1.59.7,3.77,3.77,0,0,0-.83,1.94l-.59,3.84a.9.9,0,0,1-1,.83.72.72,0,0,1-.61-.26.9.9,0,0,1-.13-.73l.69-4.25c.21-1.38-.22-2.07-1.28-2.07a2.09,2.09,0,0,0-1.61.7,3.69,3.69,0,0,0-.83,1.94l-.6,3.84A.9.9,0,0,1,135,77.49Z" transform="translate(-1.53 -3.06)"/><path d="M153.32,77.52a4.15,4.15,0,0,1-3-1,3.58,3.58,0,0,1-1.08-2.75,5.53,5.53,0,0,1,.57-2.52,4.52,4.52,0,0,1,1.59-1.79,4.29,4.29,0,0,1,2.4-.67,3.36,3.36,0,0,1,2.14.61A3.08,3.08,0,0,1,157,71a5,5,0,0,1,.16,2,.62.62,0,0,1-.17.44.71.71,0,0,1-.4.1h-5.7a2.47,2.47,0,0,0,.58,1.92,2.54,2.54,0,0,0,1.93.7,4.92,4.92,0,0,0,1.14-.13,3.79,3.79,0,0,0,1-.45.75.75,0,0,1,.59-.14.51.51,0,0,1,.35.29.64.64,0,0,1,0,.49.93.93,0,0,1-.37.48,4.28,4.28,0,0,1-1.41.61A6,6,0,0,1,153.32,77.52Zm.5-7.51a2.56,2.56,0,0,0-1.37.35,2.53,2.53,0,0,0-.89.92,3.9,3.9,0,0,0-.47,1.2h4.73a2.73,2.73,0,0,0-.38-1.76A1.8,1.8,0,0,0,153.82,70Z" transform="translate(-1.53 -3.06)"/><path d="M161.23,77.52a2.93,2.93,0,0,1-1.38-.33,2.67,2.67,0,0,1-1-.92,2.36,2.36,0,0,1-.38-1.31A2,2,0,0,1,159.59,73a8.14,8.14,0,0,1,3.61-.6h1.19l.07-.42a1.65,1.65,0,0,0-.26-1.4,1.81,1.81,0,0,0-1.43-.48,5.59,5.59,0,0,0-1.17.12,4.83,4.83,0,0,0-1.13.41.71.71,0,0,1-.59.08.63.63,0,0,1-.37-.33.64.64,0,0,1,0-.51,1,1,0,0,1,.51-.46,6.62,6.62,0,0,1,1.46-.5,7.81,7.81,0,0,1,1.5-.16,3,3,0,0,1,2.61,1,3.47,3.47,0,0,1,.48,2.65l-.66,4.16a.89.89,0,0,1-.95.87.69.69,0,0,1-.57-.24.93.93,0,0,1-.12-.73l.07-.43a2.75,2.75,0,0,1-1.13,1.09A3.31,3.31,0,0,1,161.23,77.52Zm.5-1.24a2.31,2.31,0,0,0,1.56-.58,2.51,2.51,0,0,0,.84-1.62l.09-.58h-.86a7.34,7.34,0,0,0-2.49.29,1.07,1.07,0,0,0-.69,1.07,1.3,1.3,0,0,0,.45,1.06A1.75,1.75,0,0,0,161.73,76.28Z" transform="translate(-1.53 -3.06)"/><path d="M170.42,77.52a2.27,2.27,0,0,1-1.93-.77,2.91,2.91,0,0,1-.37-2.25l1.38-8.57a.91.91,0,0,1,1-.86.67.67,0,0,1,.58.26,1,1,0,0,1,.12.76l-1.34,8.39a1.8,1.8,0,0,0,.14,1.23,1.06,1.06,0,0,0,.91.38,1.09,1.09,0,0,0,.34,0l.23,0a.29.29,0,0,1,.23.1.72.72,0,0,1,.08.4,1,1,0,0,1-.18.63.92.92,0,0,1-.44.29,1.49,1.49,0,0,1-.36.06A2.89,2.89,0,0,1,170.42,77.52Z" transform="translate(-1.53 -3.06)"/><path d="M181.23,77.52a2.81,2.81,0,0,1-2.28-.86,2.77,2.77,0,0,1-.5-2.3l.66-4.08h-.93q-.75,0-.75-.57a.7.7,0,0,1,.25-.58,1,1,0,0,1,.65-.19h1l.29-1.85a.86.86,0,0,1,.95-.81c.61,0,.87.32.76,1l-.26,1.7H183c.5,0,.74.19.74.57a.78.78,0,0,1-.21.56.85.85,0,0,1-.61.21h-2l-.64,3.94a1.75,1.75,0,0,0,.23,1.43,1.43,1.43,0,0,0,1.12.42,1.81,1.81,0,0,0,.52-.06,1.23,1.23,0,0,1,.36-.06.4.4,0,0,1,.3.1.58.58,0,0,1,.1.4,1.11,1.11,0,0,1-.15.66.75.75,0,0,1-.42.27,2.4,2.4,0,0,1-.49.11Z" transform="translate(-1.53 -3.06)"/><path d="M187.7,77.52a3.73,3.73,0,0,1-2.79-1,3.68,3.68,0,0,1-1-2.74,5.52,5.52,0,0,1,.58-2.59,4.44,4.44,0,0,1,1.62-1.76,4.28,4.28,0,0,1,2.34-.64,3.77,3.77,0,0,1,2.79,1,3.72,3.72,0,0,1,1,2.74,5.57,5.57,0,0,1-.59,2.6,4.3,4.3,0,0,1-4,2.39Zm0-1.35a2.22,2.22,0,0,0,1.49-.5,3.18,3.18,0,0,0,.94-1.33,5.26,5.26,0,0,0,.32-1.86,2.47,2.47,0,0,0-.56-1.74,1.94,1.94,0,0,0-1.52-.59,2.3,2.3,0,0,0-1.49.49A3,3,0,0,0,186,72a5.06,5.06,0,0,0-.32,1.87,2.47,2.47,0,0,0,.55,1.74A2,2,0,0,0,187.73,76.17Z" transform="translate(-1.53 -3.06)"/><path d="M201.38,77.52a7.33,7.33,0,0,1-1.57-.17,5.35,5.35,0,0,1-1.32-.48.81.81,0,0,1-.41-.46.74.74,0,0,1,0-.51.65.65,0,0,1,.35-.34.66.66,0,0,1,.57.1,5.81,5.81,0,0,0,1.16.45,5,5,0,0,0,1.22.15,2.33,2.33,0,0,0,1.37-.34,1.07,1.07,0,0,0,.48-.94q0-.8-1.05-1l-1.61-.36a2.68,2.68,0,0,1-1.41-.76,1.94,1.94,0,0,1-.51-1.37,2.28,2.28,0,0,1,.44-1.36,3,3,0,0,1,1.23-1,4.78,4.78,0,0,1,1.95-.36,5.12,5.12,0,0,1,1.36.19,4.2,4.2,0,0,1,1.21.52.87.87,0,0,1,.38.47.68.68,0,0,1,0,.49.56.56,0,0,1-.37.28.73.73,0,0,1-.58-.12,3.79,3.79,0,0,0-2.05-.55,2.41,2.41,0,0,0-1.41.36,1.14,1.14,0,0,0-.51,1,1,1,0,0,0,.23.63,1.23,1.23,0,0,0,.72.37l1.61.36a3,3,0,0,1,1.49.76,1.83,1.83,0,0,1,.53,1.35,2.28,2.28,0,0,1-1,2A4.14,4.14,0,0,1,201.38,77.52Z" transform="translate(-1.53 -3.06)"/><path d="M209.26,77.52a3,3,0,0,1-1.39-.33,2.83,2.83,0,0,1-1-.92,2.36,2.36,0,0,1-.38-1.31A2,2,0,0,1,207.61,73a8.17,8.17,0,0,1,3.61-.6h1.2l.07-.42a1.68,1.68,0,0,0-.26-1.4,1.84,1.84,0,0,0-1.44-.48,5.5,5.5,0,0,0-1.16.12,4.74,4.74,0,0,0-1.14.41.69.69,0,0,1-.58.08.58.58,0,0,1-.37-.33.57.57,0,0,1,0-.51.91.91,0,0,1,.5-.46,6.81,6.81,0,0,1,1.46-.5,8,8,0,0,1,1.5-.16,3,3,0,0,1,2.62,1,3.47,3.47,0,0,1,.47,2.65l-.65,4.16a.9.9,0,0,1-.95.87.7.7,0,0,1-.58-.24,1,1,0,0,1-.12-.73l.07-.43a2.63,2.63,0,0,1-1.13,1.09A3.27,3.27,0,0,1,209.26,77.52Zm.5-1.24a2.34,2.34,0,0,0,1.56-.58,2.6,2.6,0,0,0,.84-1.62l.08-.58h-.86a7.34,7.34,0,0,0-2.49.29,1.07,1.07,0,0,0-.69,1.07,1.28,1.28,0,0,0,.46,1.06A1.71,1.71,0,0,0,209.76,76.28Z" transform="translate(-1.53 -3.06)"/><path d="M219.41,77.52a2.5,2.5,0,0,1-2.78-3.16l.66-4.08h-.94c-.49,0-.74-.19-.74-.57a.73.73,0,0,1,.24-.58,1,1,0,0,1,.66-.19h1l.3-1.85a.86.86,0,0,1,1-.81c.61,0,.86.32.76,1l-.26,1.7h1.9c.49,0,.74.19.74.57a.78.78,0,0,1-.21.56.86.86,0,0,1-.62.21h-2l-.64,3.94a1.71,1.71,0,0,0,.23,1.43,1.42,1.42,0,0,0,1.12.42,1.81,1.81,0,0,0,.52-.06,1.23,1.23,0,0,1,.36-.06.37.37,0,0,1,.29.1.58.58,0,0,1,.11.4,1.11,1.11,0,0,1-.15.66.83.83,0,0,1-.42.27,2.4,2.4,0,0,1-.49.11Z" transform="translate(-1.53 -3.06)"/><path d="M223,77.49a.65.65,0,0,1-.58-.27,1,1,0,0,1-.12-.75l1.08-6.79a.92.92,0,0,1,1-.86.65.65,0,0,1,.58.26,1,1,0,0,1,.13.75L224,76.62A.93.93,0,0,1,223,77.49Zm1.68-10.44c-.67,0-1-.3-.93-.91A1.09,1.09,0,0,1,225,65.08a1,1,0,0,1,.74.25.78.78,0,0,1,.21.67A1.1,1.1,0,0,1,224.68,67.05Z" transform="translate(-1.53 -3.06)"/><path d="M229.19,77.52a2.93,2.93,0,0,1-1.38-.33,2.67,2.67,0,0,1-1-.92,2.29,2.29,0,0,1-.38-1.31A2,2,0,0,1,227.55,73a8.14,8.14,0,0,1,3.61-.6h1.19l.07-.42a1.65,1.65,0,0,0-.26-1.4,1.81,1.81,0,0,0-1.43-.48,5.52,5.52,0,0,0-1.17.12,4.83,4.83,0,0,0-1.13.41.72.72,0,0,1-.59.08.63.63,0,0,1-.37-.33.64.64,0,0,1,0-.51.94.94,0,0,1,.51-.46,6.62,6.62,0,0,1,1.46-.5,7.79,7.79,0,0,1,1.49-.16,3,3,0,0,1,2.62,1,3.47,3.47,0,0,1,.48,2.65l-.66,4.16a.89.89,0,0,1-1,.87.69.69,0,0,1-.57-.24.93.93,0,0,1-.12-.73l.07-.43a2.75,2.75,0,0,1-1.13,1.09A3.31,3.31,0,0,1,229.19,77.52Zm.5-1.24a2.31,2.31,0,0,0,1.56-.58,2.51,2.51,0,0,0,.84-1.62l.09-.58h-.87a7.32,7.32,0,0,0-2.48.29,1.07,1.07,0,0,0-.69,1.07,1.3,1.3,0,0,0,.45,1.06A1.73,1.73,0,0,0,229.69,76.28Z" transform="translate(-1.53 -3.06)"/><path d="M239.35,77.52a2.83,2.83,0,0,1-2.29-.86,2.77,2.77,0,0,1-.49-2.3l.65-4.08h-.93c-.5,0-.74-.19-.74-.57a.73.73,0,0,1,.24-.58,1,1,0,0,1,.65-.19h1l.29-1.85a.86.86,0,0,1,.95-.81c.61,0,.87.32.76,1l-.26,1.7h1.9q.75,0,.75.57a.79.79,0,0,1-.22.56.84.84,0,0,1-.61.21h-2l-.64,3.94a1.71,1.71,0,0,0,.22,1.43,1.44,1.44,0,0,0,1.13.42,1.73,1.73,0,0,0,.51-.06,1.24,1.24,0,0,1,.37-.06.39.39,0,0,1,.29.1.58.58,0,0,1,.1.4,1.2,1.2,0,0,1-.14.66.82.82,0,0,1-.43.27,2.25,2.25,0,0,1-.49.11Z" transform="translate(-1.53 -3.06)"/><path d="M246.05,77.52a4.13,4.13,0,0,1-3-1A3.55,3.55,0,0,1,242,73.76a5.53,5.53,0,0,1,.57-2.52,4.47,4.47,0,0,1,1.6-1.79,4.23,4.23,0,0,1,2.39-.67,3.36,3.36,0,0,1,2.14.61A3.08,3.08,0,0,1,249.77,71a5.15,5.15,0,0,1,.17,2,.62.62,0,0,1-.18.44.7.7,0,0,1-.39.1h-5.7a2.43,2.43,0,0,0,.57,1.92,2.54,2.54,0,0,0,1.93.7,4.92,4.92,0,0,0,1.14-.13,3.79,3.79,0,0,0,1.05-.45.75.75,0,0,1,.59-.14.55.55,0,0,1,.36.29.69.69,0,0,1,0,.49.88.88,0,0,1-.37.48,4.1,4.1,0,0,1-1.41.61A5.92,5.92,0,0,1,246.05,77.52Zm.5-7.51a2.56,2.56,0,0,0-1.37.35,2.61,2.61,0,0,0-.89.92,3.9,3.9,0,0,0-.47,1.2h4.73a2.67,2.67,0,0,0-.38-1.76A1.8,1.8,0,0,0,246.55,70Z" transform="translate(-1.53 -3.06)"/><path d="M257.23,80.6a.64.64,0,0,1-.66-.34.82.82,0,0,1,.1-.77l1.42-2.35L256.16,70a1,1,0,0,1,.08-.86.79.79,0,0,1,.71-.34.77.77,0,0,1,.56.18,1.28,1.28,0,0,1,.29.61l1.41,5.74,3.39-5.9A1.18,1.18,0,0,1,263,69a1,1,0,0,1,.56-.14.67.67,0,0,1,.67.34.81.81,0,0,1-.08.8l-6,10a1.61,1.61,0,0,1-.4.47A.92.92,0,0,1,257.23,80.6Z" transform="translate(-1.53 -3.06)"/><path d="M268.47,77.52a3.76,3.76,0,0,1-2.79-1,3.72,3.72,0,0,1-1-2.74,5.53,5.53,0,0,1,.59-2.59,4.44,4.44,0,0,1,1.62-1.76,4.28,4.28,0,0,1,2.34-.64,3.8,3.8,0,0,1,2.79,1,3.72,3.72,0,0,1,1,2.74,5.57,5.57,0,0,1-.59,2.6,4.33,4.33,0,0,1-4,2.39Zm0-1.35a2.24,2.24,0,0,0,1.49-.5,3.18,3.18,0,0,0,.94-1.33,5.26,5.26,0,0,0,.31-1.86,2.47,2.47,0,0,0-.55-1.74,2,2,0,0,0-1.52-.59,2.29,2.29,0,0,0-1.49.49,3.12,3.12,0,0,0-.94,1.33,5.28,5.28,0,0,0-.32,1.87,2.47,2.47,0,0,0,.56,1.74A2,2,0,0,0,268.51,76.17Z" transform="translate(-1.53 -3.06)"/><path d="M277.28,77.52a2.56,2.56,0,0,1-2.08-.85,3.24,3.24,0,0,1-.42-2.67l.69-4.37a.87.87,0,0,1,1-.81.76.76,0,0,1,.62.25.88.88,0,0,1,.14.71L276.52,74c-.2,1.41.26,2.12,1.39,2.12a2.37,2.37,0,0,0,1.77-.71,3.56,3.56,0,0,0,.87-1.93l.6-3.85a.86.86,0,0,1,1-.81.74.74,0,0,1,.63.25.87.87,0,0,1,.13.71l-1.08,6.88a.87.87,0,0,1-.95.83c-.58,0-.82-.31-.73-.92l.09-.57A3.24,3.24,0,0,1,277.28,77.52Z" transform="translate(-1.53 -3.06)"/><path d="M285,77.49a.7.7,0,0,1-.6-.26.94.94,0,0,1-.12-.73l1.08-6.84a.89.89,0,0,1,1-.84.7.7,0,0,1,.59.25,1,1,0,0,1,.12.73l-.09.55a2.89,2.89,0,0,1,1.16-1.14,4,4,0,0,1,1.64-.45.79.79,0,0,1,.58.13.66.66,0,0,1,.15.48.9.9,0,0,1-.21.66,1,1,0,0,1-.68.25l-.41.06a2.67,2.67,0,0,0-1.84.76,3.32,3.32,0,0,0-.74,1.74l-.6,3.82A.9.9,0,0,1,285,77.49Z" transform="translate(-1.53 -3.06)"/><path d="M87.34,98.22a.68.68,0,0,1-.59-.26.94.94,0,0,1-.12-.73l1.09-6.84a.87.87,0,0,1,1-.84.68.68,0,0,1,.6.25,1,1,0,0,1,.11.73l-.08.52A3.26,3.26,0,0,1,90.5,89.9,3.11,3.11,0,0,1,92,89.51a2.2,2.2,0,0,1,2.34,1.73A3.25,3.25,0,0,1,95.58,90a3.41,3.41,0,0,1,1.78-.45,2.43,2.43,0,0,1,2,.86,3.36,3.36,0,0,1,.4,2.67l-.69,4.35a.88.88,0,0,1-1,.83.72.72,0,0,1-.61-.26.9.9,0,0,1-.13-.73L98,93c.22-1.38-.21-2.07-1.28-2.07a2,2,0,0,0-1.59.7,3.77,3.77,0,0,0-.82,1.94l-.59,3.84a.91.91,0,0,1-1,.83.74.74,0,0,1-.62-.26,1,1,0,0,1-.13-.73L92.67,93c.21-1.38-.21-2.07-1.27-2.07a2.06,2.06,0,0,0-1.61.7A3.61,3.61,0,0,0,89,93.55l-.61,3.84A.9.9,0,0,1,87.34,98.22Z" transform="translate(-1.53 -3.06)"/><path d="M102.26,98.22a.68.68,0,0,1-.59-.27,1.09,1.09,0,0,1-.12-.75l1.09-6.79a.91.91,0,0,1,1-.86.67.67,0,0,1,.59.26,1,1,0,0,1,.12.75l-1.09,6.79A.91.91,0,0,1,102.26,98.22Zm1.68-10.44c-.67,0-1-.3-.94-.91a1.1,1.1,0,0,1,1.25-1.06,1,1,0,0,1,.74.25.82.82,0,0,1,.21.67A1.1,1.1,0,0,1,103.94,87.78Z" transform="translate(-1.53 -3.06)"/><path d="M109,98.25a3,3,0,0,1-2.33-1,3.78,3.78,0,0,1-.88-2.64,6.56,6.56,0,0,1,.5-2.58,4.44,4.44,0,0,1,1.45-1.86,3.8,3.8,0,0,1,2.28-.69,3.2,3.2,0,0,1,1.67.43,2.54,2.54,0,0,1,1.08,1.3l.73-4.61a.89.89,0,0,1,1-.83c.57,0,.81.33.71,1l-1.68,10.56a.93.93,0,0,1-1,.88.63.63,0,0,1-.59-.28,1.08,1.08,0,0,1-.08-.76l.08-.48A3.39,3.39,0,0,1,109,98.25Zm.64-1.35a2.23,2.23,0,0,0,1.48-.5,3.08,3.08,0,0,0,.93-1.33,5,5,0,0,0,.32-1.86,2.47,2.47,0,0,0-.55-1.74,2,2,0,0,0-1.52-.59,2.27,2.27,0,0,0-1.49.49,3.12,3.12,0,0,0-.94,1.33,5.28,5.28,0,0,0-.32,1.87,2.47,2.47,0,0,0,.56,1.74A2,2,0,0,0,109.6,96.9Z" transform="translate(-1.53 -3.06)"/><path d="M116.69,98.22a.66.66,0,0,1-.59-.28,1,1,0,0,1-.12-.76l1.07-6.77a.9.9,0,0,1,1-.86.69.69,0,0,1,.57.24.86.86,0,0,1,.1.72l-.08.57a3.19,3.19,0,0,1,1.23-1.16,3.66,3.66,0,0,1,1.76-.41,2.59,2.59,0,0,1,2.1.86,3.31,3.31,0,0,1,.44,2.65l-.68,4.33a.91.91,0,0,1-1,.87.7.7,0,0,1-.61-.27,1,1,0,0,1-.11-.75l.65-4.15c.23-1.42-.24-2.14-1.41-2.14a2.4,2.4,0,0,0-1.84.72,3.5,3.5,0,0,0-.88,1.92l-.6,3.8A.91.91,0,0,1,116.69,98.22Z" transform="translate(-1.53 -3.06)"/><path d="M126.62,98.22A.67.67,0,0,1,126,98a1.09,1.09,0,0,1-.12-.75L127,90.41a.91.91,0,0,1,1-.86.67.67,0,0,1,.59.26,1,1,0,0,1,.12.75l-1.09,6.79A.91.91,0,0,1,126.62,98.22Zm1.68-10.44c-.67,0-1-.3-.94-.91a1.1,1.1,0,0,1,1.25-1.06,1,1,0,0,1,.74.25.82.82,0,0,1,.21.67A1.1,1.1,0,0,1,128.3,87.78Z" transform="translate(-1.53 -3.06)"/><path d="M133.77,101.36a7,7,0,0,1-1.92-.25,6.2,6.2,0,0,1-1.59-.68.68.68,0,0,1-.34-.45.71.71,0,0,1,.07-.5.67.67,0,0,1,.38-.32.72.72,0,0,1,.59.09,6,6,0,0,0,1.2.56,4.41,4.41,0,0,0,1.37.2,2.78,2.78,0,0,0,1.75-.51,2.53,2.53,0,0,0,.86-1.64l.24-1.46a3.15,3.15,0,0,1-1.22,1.1,3.53,3.53,0,0,1-1.66.39,3.34,3.34,0,0,1-2.45-.92,3.42,3.42,0,0,1-.92-2.54,5.72,5.72,0,0,1,.51-2.41,4.53,4.53,0,0,1,1.46-1.82,3.83,3.83,0,0,1,2.29-.69,3.4,3.4,0,0,1,1.7.42,2.55,2.55,0,0,1,1.08,1.27l.13-.81a.88.88,0,0,1,1-.84.67.67,0,0,1,.59.26,1,1,0,0,1,.1.75l-1.14,7.21Q137.26,101.35,133.77,101.36Zm.23-4.84a2.44,2.44,0,0,0,1.52-.48,3.08,3.08,0,0,0,.94-1.28,4.62,4.62,0,0,0,.32-1.72,2.19,2.19,0,0,0-.56-1.59,2.07,2.07,0,0,0-1.57-.57,2.38,2.38,0,0,0-1.5.48,2.92,2.92,0,0,0-.94,1.28,4.41,4.41,0,0,0-.32,1.71,2.22,2.22,0,0,0,.55,1.61A2.07,2.07,0,0,0,134,96.52Z" transform="translate(-1.53 -3.06)"/><path d="M141.1,98.22a.68.68,0,0,1-.61-.28,1,1,0,0,1-.1-.76l1.66-10.52a.9.9,0,0,1,1-.86.66.66,0,0,1,.6.26,1,1,0,0,1,.12.74L143.1,91a3.23,3.23,0,0,1,1.22-1.1,3.66,3.66,0,0,1,1.72-.39,2.59,2.59,0,0,1,2.1.86,3.31,3.31,0,0,1,.44,2.65l-.68,4.33a.9.9,0,0,1-1,.87.7.7,0,0,1-.61-.27,1,1,0,0,1-.11-.75l.65-4.15c.23-1.42-.24-2.14-1.41-2.14a2.4,2.4,0,0,0-1.84.72,3.5,3.5,0,0,0-.88,1.92l-.6,3.8A.91.91,0,0,1,141.1,98.22Z" transform="translate(-1.53 -3.06)"/><path d="M153.9,98.25a2.8,2.8,0,0,1-2.29-.86,2.77,2.77,0,0,1-.49-2.3l.65-4.08h-.93c-.5,0-.74-.19-.74-.57a.69.69,0,0,1,.24-.57,1,1,0,0,1,.66-.2h1l.29-1.85a.86.86,0,0,1,.95-.81c.61,0,.87.32.76,1l-.26,1.7h1.91c.49,0,.74.19.74.57a.75.75,0,0,1-.22.56.84.84,0,0,1-.61.21h-2L152.88,95a1.71,1.71,0,0,0,.22,1.43,1.46,1.46,0,0,0,1.13.42,1.73,1.73,0,0,0,.51-.06,1.24,1.24,0,0,1,.37-.06.39.39,0,0,1,.29.1.58.58,0,0,1,.1.4,1.2,1.2,0,0,1-.14.66.76.76,0,0,1-.43.27,2.25,2.25,0,0,1-.49.11Z" transform="translate(-1.53 -3.06)"/><path d="M165.06,98.25a3.75,3.75,0,0,1-2.9-1,3.9,3.9,0,0,1-1-2.74,6.11,6.11,0,0,1,.28-1.81,4.69,4.69,0,0,1,.85-1.59,4.17,4.17,0,0,1,1.44-1.14,4.7,4.7,0,0,1,2.06-.42,4.85,4.85,0,0,1,1.26.17,3.8,3.8,0,0,1,1.06.44.88.88,0,0,1,.45.49.67.67,0,0,1,0,.52.63.63,0,0,1-.35.35.57.57,0,0,1-.54-.07,3.19,3.19,0,0,0-1.76-.52,2.57,2.57,0,0,0-1.69.53,2.94,2.94,0,0,0-.93,1.35,4.84,4.84,0,0,0-.3,1.68,2.72,2.72,0,0,0,.53,1.76,2.1,2.1,0,0,0,1.75.66,3.33,3.33,0,0,0,.79-.11,3.48,3.48,0,0,0,.85-.37.58.58,0,0,1,.49,0,.59.59,0,0,1,.34.32.68.68,0,0,1,.06.49.74.74,0,0,1-.37.45,3.77,3.77,0,0,1-1.13.48A5.2,5.2,0,0,1,165.06,98.25Z" transform="translate(-1.53 -3.06)"/><path d="M170,98.22a.69.69,0,0,1-.6-.26.94.94,0,0,1-.12-.73l1.08-6.84a.89.89,0,0,1,1-.84.7.7,0,0,1,.59.25,1,1,0,0,1,.12.73l-.09.55a2.89,2.89,0,0,1,1.16-1.14,4,4,0,0,1,1.64-.45.84.84,0,0,1,.58.13.66.66,0,0,1,.14.48.9.9,0,0,1-.2.66,1,1,0,0,1-.68.25l-.41.06a2.67,2.67,0,0,0-1.84.76,3.31,3.31,0,0,0-.73,1.74L171,97.39A.9.9,0,0,1,170,98.22Z" transform="translate(-1.53 -3.06)"/><path d="M178.31,98.25a2.93,2.93,0,0,1-1.38-.33,2.67,2.67,0,0,1-1-.92,2.28,2.28,0,0,1-.38-1.3,2,2,0,0,1,1.14-1.94,8.14,8.14,0,0,1,3.61-.6h1.19l.07-.42a1.65,1.65,0,0,0-.26-1.4,1.84,1.84,0,0,0-1.44-.48,5.5,5.5,0,0,0-1.16.12,4.83,4.83,0,0,0-1.13.41.68.68,0,0,1-.59.08.61.61,0,0,1-.37-.33.57.57,0,0,1,0-.51.9.9,0,0,1,.51-.46,6.6,6.6,0,0,1,1.46-.49,7.1,7.1,0,0,1,1.49-.17,3,3,0,0,1,2.62,1,3.43,3.43,0,0,1,.47,2.65l-.65,4.16a.89.89,0,0,1-1,.87A.67.67,0,0,1,181,98a.93.93,0,0,1-.12-.73l.07-.43a2.75,2.75,0,0,1-1.13,1.09A3.31,3.31,0,0,1,178.31,98.25Zm.5-1.24a2.31,2.31,0,0,0,1.56-.58,2.48,2.48,0,0,0,.84-1.61l.09-.59h-.87a7.28,7.28,0,0,0-2.48.29,1.07,1.07,0,0,0-.7,1.07,1.31,1.31,0,0,0,.46,1.06A1.73,1.73,0,0,0,178.81,97Z" transform="translate(-1.53 -3.06)"/><path d="M188,98.22a.94.94,0,0,1-.66-.22,1.22,1.22,0,0,1-.37-.63l-1.8-6.6a1,1,0,0,1,.07-.88.79.79,0,0,1,.72-.34.84.84,0,0,1,.56.18,1.2,1.2,0,0,1,.31.61l1.4,5.74,3.38-5.93a1.39,1.39,0,0,1,.41-.47,1,1,0,0,1,.54-.13.7.7,0,0,1,.68.33.78.78,0,0,1-.11.79l-4.06,6.87A1.22,1.22,0,0,1,188,98.22Z" transform="translate(-1.53 -3.06)"/><path d="M194.49,98.22a.65.65,0,0,1-.58-.27,1,1,0,0,1-.12-.75l1.08-6.79a.92.92,0,0,1,1-.86.65.65,0,0,1,.58.26,1,1,0,0,1,.13.75l-1.09,6.79A.93.93,0,0,1,194.49,98.22Zm1.68-10.44c-.67,0-1-.3-.93-.91a1.09,1.09,0,0,1,1.24-1.06,1,1,0,0,1,.74.25.82.82,0,0,1,.21.67A1.1,1.1,0,0,1,196.17,87.78Z" transform="translate(-1.53 -3.06)"/><path d="M198.71,98.22a.66.66,0,0,1-.59-.28,1,1,0,0,1-.12-.76l1.07-6.77a.9.9,0,0,1,1-.86.67.67,0,0,1,.57.24.86.86,0,0,1,.11.72l-.09.57a3.19,3.19,0,0,1,1.23-1.16,3.66,3.66,0,0,1,1.76-.41,2.59,2.59,0,0,1,2.1.86,3.27,3.27,0,0,1,.44,2.65l-.67,4.33a.93.93,0,0,1-1,.87.71.71,0,0,1-.61-.27,1,1,0,0,1-.11-.75l.65-4.15c.24-1.42-.24-2.14-1.41-2.14a2.41,2.41,0,0,0-1.84.72,3.43,3.43,0,0,0-.87,1.92l-.61,3.8A.9.9,0,0,1,198.71,98.22Z" transform="translate(-1.53 -3.06)"/><path d="M211.6,101.36a7,7,0,0,1-1.92-.25,6.05,6.05,0,0,1-1.59-.68.69.69,0,0,1-.35-.45.77.77,0,0,1,.07-.5.67.67,0,0,1,.38-.32.72.72,0,0,1,.59.09,5.79,5.79,0,0,0,1.21.56,4.35,4.35,0,0,0,1.36.2,2.83,2.83,0,0,0,1.76-.51,2.53,2.53,0,0,0,.85-1.64l.24-1.46A3.12,3.12,0,0,1,213,97.5a3.57,3.57,0,0,1-1.67.39,3.31,3.31,0,0,1-2.44-.92,3.42,3.42,0,0,1-.93-2.54,5.72,5.72,0,0,1,.51-2.41,4.47,4.47,0,0,1,1.47-1.82,3.81,3.81,0,0,1,2.29-.69,3.36,3.36,0,0,1,1.69.42A2.52,2.52,0,0,1,215,91.2l.12-.81a.89.89,0,0,1,1-.84.65.65,0,0,1,.58.26,1,1,0,0,1,.11.75l-1.14,7.21C215.28,100.16,213.92,101.36,211.6,101.36Zm.22-4.84a2.4,2.4,0,0,0,1.52-.48,2.92,2.92,0,0,0,.94-1.28A4.43,4.43,0,0,0,214.6,93a2.18,2.18,0,0,0-.55-1.59,2.09,2.09,0,0,0-1.57-.57,2.41,2.41,0,0,0-1.51.48,3.08,3.08,0,0,0-.94,1.28,4.6,4.6,0,0,0-.32,1.71,2.22,2.22,0,0,0,.56,1.61A2,2,0,0,0,211.82,96.52Z" transform="translate(-1.53 -3.06)"/><path d="M221.37,98.25a7.4,7.4,0,0,1-1.57-.17,5,5,0,0,1-1.31-.48.81.81,0,0,1-.41-.46.69.69,0,0,1,0-.51.65.65,0,0,1,.35-.34.66.66,0,0,1,.57.1,6,6,0,0,0,1.15.45,5.17,5.17,0,0,0,1.23.15,2.43,2.43,0,0,0,1.37-.33,1.1,1.1,0,0,0,.48-1q0-.79-1.05-1l-1.61-.36a2.68,2.68,0,0,1-1.41-.76,1.93,1.93,0,0,1-.51-1.36,2.37,2.37,0,0,1,.43-1.37,3.08,3.08,0,0,1,1.24-1,4.73,4.73,0,0,1,1.94-.36,5.58,5.58,0,0,1,1.37.19,4.33,4.33,0,0,1,1.21.52.92.92,0,0,1,.38.47.68.68,0,0,1,0,.49.52.52,0,0,1-.36.28.73.73,0,0,1-.58-.12,3.81,3.81,0,0,0-2.05-.55,2.41,2.41,0,0,0-1.41.36,1.14,1.14,0,0,0-.51,1,1,1,0,0,0,.22.63,1.23,1.23,0,0,0,.73.37l1.61.36a3,3,0,0,1,1.49.76,1.83,1.83,0,0,1,.53,1.35,2.28,2.28,0,0,1-1,2A4.16,4.16,0,0,1,221.37,98.25Z" transform="translate(-1.53 -3.06)"/><path d="M227.44,98.17a1.06,1.06,0,0,1-1.11-1.11A1,1,0,0,1,227.44,96a1,1,0,0,1,.79.3,1.09,1.09,0,0,1,.3.79,1.12,1.12,0,0,1-.3.8A1.05,1.05,0,0,1,227.44,98.17Zm.38-3.42c-.38,0-.55-.21-.52-.63l.73-7.3a1,1,0,0,1,1.1-1,.87.87,0,0,1,.76.33A1.07,1.07,0,0,1,230,87l-1.57,7.19A.6.6,0,0,1,227.82,94.75Z" transform="translate(-1.53 -3.06)"/></svg>