<svg id="Layer_1" data-name="Layer 1" xmlns="http://www.w3.org/2000/svg" viewBox="0 0 1000 300"><path d="M192.05,79.5A11.48,11.48,0,0,1,198.13,81a14.55,14.55,0,0,1,4.16,3.8,20.2,20.2,0,0,1,2.68,5c.66,1.81,1.24,3.52,1.72,5.12a25.46,25.46,0,0,0,2.76,6.36q1.88,3.17,3.72,6.52a53.8,53.8,0,0,1,3.24,7.2,24.69,24.69,0,0,1,1.4,8.48,13.15,13.15,0,0,1-.92,5.08,10.89,10.89,0,0,1-6.36,6.12,13.1,13.1,0,0,1-4.56.8,15.27,15.27,0,0,1-3.52-.44A9.81,9.81,0,0,1,199,133.5a10,10,0,0,1-2.8-3.12,13.18,13.18,0,0,1-1.6-5.2,25.1,25.1,0,0,1-.16-5c.1-1.81.16-3.51.16-5.08a14.87,14.87,0,0,0-.44-3.92,1.82,1.82,0,0,0-1.8-1.56,1.75,1.75,0,0,0-1.76,1.56,16,16,0,0,0-.4,3.92c0,1.57,0,3.27.16,5.08a26.67,26.67,0,0,1-.16,5,13.35,13.35,0,0,1-1.6,5.2,10.17,10.17,0,0,1-2.8,3.12,10,10,0,0,1-3.44,1.56,15.34,15.34,0,0,1-3.52.44,13.1,13.1,0,0,1-4.56-.8,10.91,10.91,0,0,1-3.8-2.36,10.78,10.78,0,0,1-2.56-3.76,13,13,0,0,1-.92-5.08,24.45,24.45,0,0,1,1.4-8.48,48.26,48.26,0,0,1,3.28-7.2q1.88-3.36,3.72-6.52a27.26,27.26,0,0,0,2.72-6.36q.72-2.4,1.72-5.12a20.42,20.42,0,0,1,2.64-5,14.75,14.75,0,0,1,4-3.8A10,10,0,0,1,192.05,79.5ZM192,95.26a2.68,2.68,0,0,0,2.16-1,3.88,3.88,0,0,0,.8-2.56,3.72,3.72,0,0,0-.8-2.52A2.75,2.75,0,0,0,192,88.3a2.72,2.72,0,0,0-2.16.92,3.67,3.67,0,0,0-.8,2.52,3.83,3.83,0,0,0,.8,2.56A2.66,2.66,0,0,0,192,95.26Z"/><path d="M273.4,99.42a4,4,0,0,0,1.48,2.84,39.42,39.42,0,0,1,3.24,3.52,23.86,23.86,0,0,1,3.24,5.28,19.4,19.4,0,0,1,1.48,8.2,21.25,21.25,0,0,1-.92,6.4,15.44,15.44,0,0,1-2.68,5.16,12.18,12.18,0,0,1-4.36,3.44,13.63,13.63,0,0,1-6,1.24,47.88,47.88,0,0,1-5.24-.24q-2.12-.24-3.48-.48a20.62,20.62,0,0,1-2.16-.48,4.82,4.82,0,0,0-1.36-.24,4,4,0,0,0-1.32.24c-.45.16-1,.32-1.6.48s-1.36.32-2.24.48a17.92,17.92,0,0,1-3.16.24,9.76,9.76,0,0,1-6-2.08,8,8,0,0,1-2.16-2.68,8.41,8.41,0,0,1-.84-3.88,26.5,26.5,0,0,1,.48-5.2c.32-1.6.66-3.19,1-4.76s.66-3.16.92-4.76a20.65,20.65,0,0,0,.16-5.2c-.1-1.49-.26-3-.48-4.4s-.42-2.91-.64-4.4-.4-3-.56-4.68-.24-3.37-.24-5.24a12.47,12.47,0,0,1,.44-3.28,7.77,7.77,0,0,1,1.4-2.8,7,7,0,0,1,2.44-1.92,8.1,8.1,0,0,1,3.56-.72,27.82,27.82,0,0,1,3.28.16c.91.11,1.68.21,2.32.32s1.18.21,1.6.32a4.56,4.56,0,0,0,1.12.16,16.37,16.37,0,0,0,3.48-.48A24.71,24.71,0,0,1,265,79.5a20.42,20.42,0,0,1,4.76.52,10.11,10.11,0,0,1,3.8,1.72,8.36,8.36,0,0,1,2.52,3.08A10.49,10.49,0,0,1,277,89.5a9.5,9.5,0,0,1-.56,3.6,12.39,12.39,0,0,1-1.24,2.36c-.45.67-.86,1.29-1.24,1.88A3.83,3.83,0,0,0,273.4,99.42ZM256.84,91.1a8.16,8.16,0,0,0,.36,2.64c.24.69.9,1,2,1a3.69,3.69,0,0,0,2.72-1,3.92,3.92,0,0,0,0-5.32,3.74,3.74,0,0,0-2.72-1c-1.06,0-1.72.33-2,1A8.13,8.13,0,0,0,256.84,91.1Zm.16,16.48a9.87,9.87,0,0,0,.4,3.08c.27.77,1,1.16,2.24,1.16a4.27,4.27,0,0,0,3.16-1.16,4.62,4.62,0,0,0,0-6.12,4.17,4.17,0,0,0-3.16-1.2c-1.22,0-2,.4-2.24,1.2A10,10,0,0,0,257,107.58Z"/><path d="M293.48,79.5a14.19,14.19,0,0,1,1.76.12c.64.08,1.27.17,1.88.28s1.18.21,1.68.32.92.19,1.24.24a8.07,8.07,0,0,0,2.4.12c.8-.08,1.66-.2,2.56-.36s1.94-.32,3.08-.48a29,29,0,0,1,4-.24,18.19,18.19,0,0,1,5.68.88,13.47,13.47,0,0,1,4.84,2.76,13.07,13.07,0,0,1,3.36,4.76,17.26,17.26,0,0,1,1.24,6.88,11.55,11.55,0,0,1-1.32,5.72,18.92,18.92,0,0,1-3,4c-1.09,1.12-2.08,2-3,2.8a3,3,0,0,0-1.32,2.08c0,.48.38,1,1.12,1.44a30.88,30.88,0,0,0,2.8,1.56q1.68.84,3.6,1.92a18.9,18.9,0,0,1,3.6,2.64,13.38,13.38,0,0,1,2.8,3.72,10.76,10.76,0,0,1,1.12,5q0,4.8-2.52,7.28a9.34,9.34,0,0,1-6.84,2.48,9.22,9.22,0,0,1-5.36-1.4,10.21,10.21,0,0,1-3.16-3.56,18.41,18.41,0,0,1-1.72-4.72q-.56-2.56-1-4.8a17.12,17.12,0,0,0-2.08-6c-1-1.57-1.89-2.36-2.8-2.36a1.4,1.4,0,0,0-.88.32,1.62,1.62,0,0,0-.52,1.36,8.94,8.94,0,0,0,.4,2.08c.24.8.55,1.69.92,2.68s.72,2,1,3.08a17,17,0,0,1,.76,4.36,8.87,8.87,0,0,1-.84,4.36,7.76,7.76,0,0,1-3.24,3.32,13,13,0,0,1-6.44,1.32,16.63,16.63,0,0,1-7-1.2,8.94,8.94,0,0,1-3.72-3,9.12,9.12,0,0,1-1.48-3.84,28.68,28.68,0,0,1-.28-3.72,18.64,18.64,0,0,1,.4-3.8c.27-1.25.58-2.65.92-4.2s.66-3.32.92-5.32a53.8,53.8,0,0,0,.4-7.08,26.84,26.84,0,0,0-.32-4.28c-.21-1.36-.44-2.69-.68-4l-.72-3.92a39.77,39.77,0,0,1-.52-4,8.16,8.16,0,0,1,1.28-5.6A5.75,5.75,0,0,1,293.48,79.5Zm12.4,12.32a14.82,14.82,0,0,0,.52,3c.24.77.87,1.13,1.88,1.08a3.2,3.2,0,0,0,2.52-1.28,4.17,4.17,0,0,0,.76-3,4.91,4.91,0,0,0-1.2-3,3.17,3.17,0,0,0-2.64-1.08c-1,0-1.6.48-1.76,1.28A11.29,11.29,0,0,0,305.88,91.82Z"/><path d="M349.8,135.5a14,14,0,0,1-6.08-1.16,10.2,10.2,0,0,1-3.8-3,9.79,9.79,0,0,1-1.84-4.12,17.24,17.24,0,0,1-.28-4.44,29.78,29.78,0,0,1,.92-5.36c.46-1.65.94-3.23,1.44-4.72s.95-3,1.32-4.36a16.82,16.82,0,0,0,.56-4.28,33.13,33.13,0,0,0-.28-4.48c-.19-1.39-.39-2.73-.6-4s-.38-2.65-.52-4a27.67,27.67,0,0,1,0-4.48,8.63,8.63,0,0,1,1-3.52,7.09,7.09,0,0,1,2-2.32,8,8,0,0,1,2.72-1.28,12.36,12.36,0,0,1,3.2-.4,12.84,12.84,0,0,1,3.24.4,8,8,0,0,1,2.76,1.28,7.09,7.09,0,0,1,2,2.32,8.63,8.63,0,0,1,1,3.52,27.67,27.67,0,0,1,0,4.48c-.13,1.39-.31,2.73-.52,4s-.41,2.65-.6,4a33.13,33.13,0,0,0-.28,4.48,16.82,16.82,0,0,0,.56,4.28c.37,1.41.81,2.87,1.32,4.36s1,3.07,1.44,4.72a28.92,28.92,0,0,1,.92,5.36,16.39,16.39,0,0,1-.28,4.44,10.31,10.31,0,0,1-1.76,4.12,9.73,9.73,0,0,1-3.6,3A12.79,12.79,0,0,1,349.8,135.5Z"/><path d="M388.6,79.5q7,0,10.16,1.8a5.43,5.43,0,0,1,3.12,4.84,4.75,4.75,0,0,1-1.36,3.76,4.68,4.68,0,0,1-3.2,1.2,7.77,7.77,0,0,1-3.6-1,8.08,8.08,0,0,0-2.24-.8,12.21,12.21,0,0,0-2.4-.24,10,10,0,0,0-4.56,1,3.11,3.11,0,0,0-2,2.84,1.55,1.55,0,0,0,.56,1.4,2.78,2.78,0,0,0,1.52.36,15.33,15.33,0,0,0,3.52-.48l2.2-.4a12.85,12.85,0,0,1,2.44-.24,5.86,5.86,0,0,1,3.08.8q1.32.8,1.32,3.36a4.38,4.38,0,0,1-1.36,3.36,5.52,5.52,0,0,1-3.92,1.28,16.66,16.66,0,0,1-4.4-.72l-2-.56a5.91,5.91,0,0,0-1.52-.24,1.58,1.58,0,0,0-1.32.56,3.37,3.37,0,0,0-.44,2,4,4,0,0,0,1.56,3.32,6.28,6.28,0,0,0,4,1.24,11.36,11.36,0,0,0,2.72-.4,18.28,18.28,0,0,1,5.12-.8,9.19,9.19,0,0,1,4.72,1.12,8.63,8.63,0,0,1,3.08,3,13.38,13.38,0,0,1,1.64,4.36,26.29,26.29,0,0,1,.48,5.08,15,15,0,0,1-1.56,7.2,13,13,0,0,1-4.12,4.64,17.19,17.19,0,0,1-5.76,2.52,27.73,27.73,0,0,1-6.48.76,32,32,0,0,1-10-1.4,14.78,14.78,0,0,1-6.92-4.72,21.36,21.36,0,0,1-4-8.8,61.38,61.38,0,0,1-1.28-13.64,51.49,51.49,0,0,1,1.44-13.28,19.91,19.91,0,0,1,4.36-8.44,15.68,15.68,0,0,1,7.28-4.44A36.18,36.18,0,0,1,388.6,79.5Z"/><path d="M429.24,111.18a5.45,5.45,0,0,0,.88,2.88c.59,1,1.21,2,1.88,3.16a32.72,32.72,0,0,1,1.88,3.84,12.67,12.67,0,0,1,.88,4.92,9.35,9.35,0,0,1-.92,4.28,8.32,8.32,0,0,1-2.48,3,10.66,10.66,0,0,1-3.64,1.72,17,17,0,0,1-4.4.56,19.48,19.48,0,0,1-6.76-1,11.25,11.25,0,0,1-4.2-2.56,8.63,8.63,0,0,1-2.12-3.52,13,13,0,0,1-.6-3.8,17.75,17.75,0,0,1,.48-4.16c.32-1.33.67-2.72,1-4.16s.72-3,1-4.68a30.78,30.78,0,0,0,.48-5.72,29.56,29.56,0,0,0-.36-5c-.24-1.39-.51-2.72-.8-4s-.56-2.59-.8-3.92a27.48,27.48,0,0,1-.36-4.8,9.28,9.28,0,0,1,.6-3.28,7.11,7.11,0,0,1,1.92-2.8,9.84,9.84,0,0,1,3.32-1.92,14.19,14.19,0,0,1,4.8-.72,27.6,27.6,0,0,1,5.32.4,16.14,16.14,0,0,0,3.08.4,40.57,40.57,0,0,0,5.16-.4,54.87,54.87,0,0,1,7.08-.4,16.68,16.68,0,0,1,4.88.6,8.51,8.51,0,0,1,3.08,1.6A5.59,5.59,0,0,1,451.24,84a7.77,7.77,0,0,1,.48,2.68,5.86,5.86,0,0,1-2.08,5,7.75,7.75,0,0,1-4.88,1.6,10.38,10.38,0,0,1-2.64-.32c-1.6-.43-3.07-.77-4.4-1a18,18,0,0,0-3.52-.4q-3.36,0-4,2.32a2.84,2.84,0,0,0,0,1.36,2.47,2.47,0,0,0,.76,1.28,3.91,3.91,0,0,0,1.64.84,6.17,6.17,0,0,0,2.56,0,16,16,0,0,1,3.32-.16,12.35,12.35,0,0,1,3.8.76,8.57,8.57,0,0,1,3.16,2,4.7,4.7,0,0,1,1.32,3.48,6.43,6.43,0,0,1-.28,1.84,5.1,5.1,0,0,1-.88,1.72,4.81,4.81,0,0,1-1.6,1.28,5.41,5.41,0,0,1-2.52.52,14.36,14.36,0,0,1-5.44-1.36,5.36,5.36,0,0,0-2.4-.56,4.29,4.29,0,0,0-3.12,1.24A4.13,4.13,0,0,0,429.24,111.18Z"/><path d="M502,135.5a14,14,0,0,1-6.08-1.16,10.2,10.2,0,0,1-3.8-3,9.67,9.67,0,0,1-1.84-4.12,16.81,16.81,0,0,1-.28-4.44,39.55,39.55,0,0,1,.8-5.36c.37-1.65.77-3.24,1.2-4.76s.85-3,1.28-4.4a30.93,30.93,0,0,0,1-4.2,20.65,20.65,0,0,0,.32-3.16,31.29,31.29,0,0,0-.08-3.88,15.17,15.17,0,0,0-.6-3.28c-.29-.91-.74-1.36-1.32-1.36a2.32,2.32,0,0,0-2,1.12c-.4.69-.86,1.45-1.36,2.28a7.65,7.65,0,0,1-2.2,2.24,7.92,7.92,0,0,1-4.48,1,8.57,8.57,0,0,1-4-1,9.29,9.29,0,0,1-3.16-2.6,9.41,9.41,0,0,1-1.76-3.72,7.7,7.7,0,0,1,.24-4.24,9.39,9.39,0,0,1,2.2-3.76,10.82,10.82,0,0,1,4.6-2.48,39.37,39.37,0,0,1,8.2-1.36c3.38-.27,7.67-.4,12.84-.4s9.53.13,12.92.4a39.37,39.37,0,0,1,8.2,1.36,10.82,10.82,0,0,1,4.6,2.48,9.51,9.51,0,0,1,2.2,3.76,8,8,0,0,1,.28,4.24,9.09,9.09,0,0,1-4.8,6.32,9,9,0,0,1-4.12,1,7.76,7.76,0,0,1-4.4-1,7.53,7.53,0,0,1-2.2-2.24l-1.4-2.28a2.43,2.43,0,0,0-2.08-1.12c-.54,0-1,.45-1.28,1.36a13.42,13.42,0,0,0-.64,3.28,29.46,29.46,0,0,0-.08,3.88,20.65,20.65,0,0,0,.32,3.16c.27,1.39.6,2.79,1,4.2l1.24,4.4c.42,1.52.82,3.11,1.2,4.76a39.55,39.55,0,0,1,.8,5.36,16.81,16.81,0,0,1-.28,4.44,10.46,10.46,0,0,1-1.76,4.12,9.73,9.73,0,0,1-3.6,3A12.82,12.82,0,0,1,502,135.5Z"/><path d="M544.44,135.5a14,14,0,0,1-6.08-1.16,10.2,10.2,0,0,1-3.8-3,9.67,9.67,0,0,1-1.84-4.12,16.81,16.81,0,0,1-.28-4.44,29.78,29.78,0,0,1,.92-5.36c.45-1.65.93-3.23,1.44-4.72s.94-3,1.32-4.36a16.82,16.82,0,0,0,.56-4.28,34.84,34.84,0,0,0-.28-4.48c-.19-1.39-.39-2.73-.6-4s-.39-2.65-.52-4a26.58,26.58,0,0,1,0-4.48,8.32,8.32,0,0,1,1-3.52,7.09,7.09,0,0,1,2-2.32,8,8,0,0,1,2.72-1.28,12.36,12.36,0,0,1,3.2-.4,12.84,12.84,0,0,1,3.24.4,8,8,0,0,1,2.76,1.28,7.21,7.21,0,0,1,2,2.32,8.63,8.63,0,0,1,1,3.52,28.86,28.86,0,0,1,0,4.48c-.13,1.39-.31,2.73-.52,4s-.42,2.65-.6,4a33.13,33.13,0,0,0-.28,4.48,16.39,16.39,0,0,0,.56,4.28c.37,1.41.81,2.87,1.32,4.36s1,3.07,1.44,4.72a29.78,29.78,0,0,1,.92,5.36,16.81,16.81,0,0,1-.28,4.44,10.46,10.46,0,0,1-1.76,4.12,9.73,9.73,0,0,1-3.6,3A12.82,12.82,0,0,1,544.44,135.5Z"/><path d="M587.08,100.14a2.42,2.42,0,0,0,1.8-.8,5.71,5.71,0,0,0,1.2-2.24,16.58,16.58,0,0,0,.6-3.32,21.27,21.27,0,0,0-.08-4,10.11,10.11,0,0,1,.52-4.64,7.9,7.9,0,0,1,2.2-3.16,9.31,9.31,0,0,1,3.32-1.84,12.92,12.92,0,0,1,4-.6,12.3,12.3,0,0,1,4.56.76,8.67,8.67,0,0,1,3.16,2.08,10,10,0,0,1,1.92,3,10.37,10.37,0,0,1,.76,3.48,25.29,25.29,0,0,1,0,3.16c-.08,1-.18,2-.28,3.12s-.22,2.33-.32,3.72-.19,3-.24,5a18.16,18.16,0,0,0,.64,4.44q.63,2.52,1.4,5.36t1.44,5.88a27.68,27.68,0,0,1,.68,6,8.75,8.75,0,0,1-4.16,8A12.57,12.57,0,0,1,606,135a22.32,22.32,0,0,1-4.6.48,16.51,16.51,0,0,1-4-.48,10,10,0,0,1-3.48-1.56,8.29,8.29,0,0,1-2.48-2.8,9.9,9.9,0,0,1-1.12-4.28,11.13,11.13,0,0,1,1-4.8c.69-1.65,1.4-3.23,2.12-4.72A30.75,30.75,0,0,0,595,113c.34-1.09.12-1.85-.68-2.28a1.48,1.48,0,0,0-1.84.16A9.47,9.47,0,0,0,591,112.7a23,23,0,0,1-1.64,2.12,3,3,0,0,1-4.48,0,20,20,0,0,1-1.64-2.12,12.7,12.7,0,0,0-1.48-1.84,1.47,1.47,0,0,0-1.84-.16,1.36,1.36,0,0,0-.8,1.32,5.84,5.84,0,0,0,.48,2.12c.32.8.73,1.71,1.24,2.72s1,2,1.48,3.12a25.38,25.38,0,0,1,1.2,3.24,9.53,9.53,0,0,1,.4,3.16,9.13,9.13,0,0,1-1.08,4.28,8.85,8.85,0,0,1-2.52,2.8,10.17,10.17,0,0,1-3.44,1.56,16.47,16.47,0,0,1-4,.48,22.37,22.37,0,0,1-4.56-.48,12.44,12.44,0,0,1-4.16-1.64,9.12,9.12,0,0,1-3-3.08,9.26,9.26,0,0,1-1.16-4.88,27.07,27.07,0,0,1,.68-6q.68-3,1.44-5.88t1.4-5.36a18.66,18.66,0,0,0,.64-4.44c-.06-1.92-.14-3.57-.24-5s-.22-2.63-.32-3.72-.2-2.13-.28-3.12a23.51,23.51,0,0,1,0-3.16A10.58,10.58,0,0,1,564,85.3a8.67,8.67,0,0,1,1.92-3,9,9,0,0,1,3.2-2.08,12.3,12.3,0,0,1,4.56-.76,13,13,0,0,1,4,.6,9,9,0,0,1,3.28,1.84A8.24,8.24,0,0,1,583,85.1a10.25,10.25,0,0,1,.52,4.64,28.92,28.92,0,0,0,0,4,13.2,13.2,0,0,0,.6,3.32,6.27,6.27,0,0,0,1.2,2.24A2.28,2.28,0,0,0,587.08,100.14Z"/><path d="M641.56,79.5q7,0,10.16,1.8a5.43,5.43,0,0,1,3.12,4.84,4.78,4.78,0,0,1-1.36,3.76,4.7,4.7,0,0,1-3.2,1.2,7.71,7.71,0,0,1-3.6-1,8.19,8.19,0,0,0-2.24-.8,12.21,12.21,0,0,0-2.4-.24,10,10,0,0,0-4.56,1,3.09,3.09,0,0,0-2,2.84,1.53,1.53,0,0,0,.56,1.4,2.78,2.78,0,0,0,1.52.36,15.4,15.4,0,0,0,3.52-.48l2.2-.4a12.77,12.77,0,0,1,2.44-.24,5.86,5.86,0,0,1,3.08.8q1.32.8,1.32,3.36a4.41,4.41,0,0,1-1.36,3.36,5.54,5.54,0,0,1-3.92,1.28,16.59,16.59,0,0,1-4.4-.72l-2-.56a6,6,0,0,0-1.52-.24,1.58,1.58,0,0,0-1.32.56,3.3,3.3,0,0,0-.44,2,4,4,0,0,0,1.56,3.32,6.26,6.26,0,0,0,4,1.24,11.43,11.43,0,0,0,2.72-.4,18.28,18.28,0,0,1,5.12-.8,9.21,9.21,0,0,1,4.72,1.12,8.71,8.71,0,0,1,3.08,3A13.38,13.38,0,0,1,658,115.3a26.29,26.29,0,0,1,.48,5.08,15,15,0,0,1-1.56,7.2,13.13,13.13,0,0,1-4.12,4.64,17.19,17.19,0,0,1-5.76,2.52,27.85,27.85,0,0,1-6.48.76,32,32,0,0,1-10-1.4,14.78,14.78,0,0,1-6.92-4.72,21.24,21.24,0,0,1-4-8.8,60.79,60.79,0,0,1-1.28-13.64,51.49,51.49,0,0,1,1.44-13.28,19.91,19.91,0,0,1,4.36-8.44,15.63,15.63,0,0,1,7.28-4.44A36.13,36.13,0,0,1,641.56,79.5Z"/><path d="M681.48,87a26.87,26.87,0,0,1-.28,3.52c-.19,1.33-.39,2.71-.6,4.12s-.4,2.83-.56,4.24a27.92,27.92,0,0,0-.2,3.84,8.4,8.4,0,0,0,.48,2.88,2,2,0,0,0,1.48,1.4,3.4,3.4,0,0,0,2.08-.16c.64-.27,1.36-.6,2.16-1a21.73,21.73,0,0,1,2.88-1.16,13.69,13.69,0,0,1,4.24-.56,8.33,8.33,0,0,1,4.68,1.24,9.75,9.75,0,0,1,3.08,3.32,15.36,15.36,0,0,1,1.72,4.76,29.25,29.25,0,0,1,.52,5.48,23.5,23.5,0,0,1-1.08,7.56,11.29,11.29,0,0,1-3.48,5.16,15.08,15.08,0,0,1-6.24,2.92,40.61,40.61,0,0,1-9.28.92q-4,0-7-.2a26.38,26.38,0,0,1-5.2-.8,12.15,12.15,0,0,1-3.76-1.68,10.08,10.08,0,0,1-2.68-2.76,11.9,11.9,0,0,1-1.76-5.6,37.58,37.58,0,0,1,.12-6.68c.24-2.32.54-4.67.92-7a43.49,43.49,0,0,0,.56-6.68,34.84,34.84,0,0,0-.28-4.48c-.19-1.39-.39-2.73-.6-4s-.39-2.65-.52-4a26.58,26.58,0,0,1,0-4.48q.31-4.15,3-5.84a13.74,13.74,0,0,1,9.88-1.28,8.91,8.91,0,0,1,2.84,1.28,6.86,6.86,0,0,1,2.08,2.32A7.18,7.18,0,0,1,681.48,87Z"/><path d="M719.32,135.5a14,14,0,0,1-6.08-1.16,10.2,10.2,0,0,1-3.8-3,9.67,9.67,0,0,1-1.84-4.12,16.39,16.39,0,0,1-.28-4.44,28.92,28.92,0,0,1,.92-5.36c.45-1.65.93-3.23,1.44-4.72s.94-3,1.32-4.36a16.82,16.82,0,0,0,.56-4.28,34.84,34.84,0,0,0-.28-4.48c-.19-1.39-.39-2.73-.6-4s-.39-2.65-.52-4a26.58,26.58,0,0,1,0-4.48,8.32,8.32,0,0,1,1-3.52,7.09,7.09,0,0,1,2-2.32,7.93,7.93,0,0,1,2.72-1.28,12.36,12.36,0,0,1,3.2-.4,12.84,12.84,0,0,1,3.24.4A8,8,0,0,1,725,81.18a7.21,7.21,0,0,1,2,2.32A8.63,8.63,0,0,1,728,87a28.86,28.86,0,0,1,0,4.48c-.14,1.39-.31,2.73-.52,4s-.42,2.65-.6,4a33.13,33.13,0,0,0-.28,4.48,16.39,16.39,0,0,0,.56,4.28c.37,1.41.81,2.87,1.32,4.36s1,3.07,1.44,4.72a29.78,29.78,0,0,1,.92,5.36,17.24,17.24,0,0,1-.28,4.44,10.46,10.46,0,0,1-1.76,4.12,9.73,9.73,0,0,1-3.6,3A12.82,12.82,0,0,1,719.32,135.5Z"/><path d="M746.51,79.5a14,14,0,0,1,3.72.44A8.44,8.44,0,0,1,753,81.22a10.36,10.36,0,0,1,2,1.92,18.62,18.62,0,0,1,1.68,2.44,43.08,43.08,0,0,1,3.52,7.32q1.6,4.2,3,7.92t2.68,6.32c.86,1.73,1.71,2.6,2.56,2.6a1.38,1.38,0,0,0,.88-.32,3.26,3.26,0,0,0,.92-2.72,27.85,27.85,0,0,0-.52-4.52c-.32-1.73-.66-3.65-1-5.76a36.76,36.76,0,0,1-.56-6.36,12.53,12.53,0,0,1,2.16-7.64q2.16-2.92,7.2-2.92,5.68,0,7.88,2.92a12.35,12.35,0,0,1,2.2,7.64c0,1.87-.06,3.56-.2,5.08s-.26,3-.4,4.52-.26,3-.4,4.68-.2,3.51-.2,5.64a19.13,19.13,0,0,0,.36,3.84q.36,1.75.84,3.48t.84,3.6a22.37,22.37,0,0,1,.36,4.2,10.74,10.74,0,0,1-1.28,5.68,8.77,8.77,0,0,1-3.08,3.12,10.47,10.47,0,0,1-3.68,1.32,21.23,21.23,0,0,1-3.08.28,12.43,12.43,0,0,1-7.76-2.64A21.32,21.32,0,0,1,764,125.1c-1.12-2.35-2.1-4.69-3-7s-1.65-4.48-2.4-6.4a37.38,37.38,0,0,0-2.12-4.68q-1-1.8-2-1.8a1.74,1.74,0,0,0-.88.4c-.64.53-.77,1.43-.4,2.68a44.94,44.94,0,0,0,1.68,4.48c.75,1.73,1.48,3.63,2.2,5.68a19.06,19.06,0,0,1,1.08,6.36,11,11,0,0,1-2.72,7.72q-2.71,3-7.68,3-6.8,0-9.8-2.92t-3-8.92a33.77,33.77,0,0,1,.6-6.24q.6-3.19,1.32-6.12c.48-2,.92-3.77,1.32-5.48a19.56,19.56,0,0,0,.6-4.32c0-1.39,0-2.68-.12-3.88s-.17-2.35-.28-3.44-.2-2.19-.28-3.28a29.45,29.45,0,0,1,0-3.4q.16-4.08,2.68-6A9.18,9.18,0,0,1,746.51,79.5Z"/><path d="M816.11,79.5c4.7,0,8.08.6,10.16,1.8a5.43,5.43,0,0,1,3.12,4.84A4.75,4.75,0,0,1,828,89.9a4.66,4.66,0,0,1-3.2,1.2,7.77,7.77,0,0,1-3.6-1,8.08,8.08,0,0,0-2.24-.8,12.21,12.21,0,0,0-2.4-.24,10.06,10.06,0,0,0-4.56,1,3.11,3.11,0,0,0-2,2.84,1.55,1.55,0,0,0,.56,1.4,2.8,2.8,0,0,0,1.52.36,15.26,15.26,0,0,0,3.52-.48c.64-.11,1.38-.24,2.2-.4a12.85,12.85,0,0,1,2.44-.24,5.84,5.84,0,0,1,3.08.8q1.32.8,1.32,3.36a4.38,4.38,0,0,1-1.36,3.36,5.51,5.51,0,0,1-3.92,1.28,16.72,16.72,0,0,1-4.4-.72l-2-.56a5.85,5.85,0,0,0-1.52-.24,1.6,1.6,0,0,0-1.32.56,3.37,3.37,0,0,0-.44,2,4,4,0,0,0,1.56,3.32,6.28,6.28,0,0,0,4,1.24,11.29,11.29,0,0,0,2.72-.4,18.34,18.34,0,0,1,5.12-.8,9.19,9.19,0,0,1,4.72,1.12,8.63,8.63,0,0,1,3.08,3,13.16,13.16,0,0,1,1.64,4.36,26.29,26.29,0,0,1,.48,5.08,15,15,0,0,1-1.56,7.2,13,13,0,0,1-4.12,4.64,17,17,0,0,1-5.76,2.52,27.73,27.73,0,0,1-6.48.76,32,32,0,0,1-10-1.4,14.83,14.83,0,0,1-6.92-4.72,21.49,21.49,0,0,1-4-8.8,61.38,61.38,0,0,1-1.28-13.64,51.49,51.49,0,0,1,1.44-13.28,20,20,0,0,1,4.36-8.44A15.73,15.73,0,0,1,806,80.78,36.18,36.18,0,0,1,816.11,79.5Z"/><path d="M180.21,164.5a22.79,22.79,0,0,1,9.64,2.16,25.74,25.74,0,0,1,8.24,6,28.06,28.06,0,0,1,7.16,21,32.2,32.2,0,0,1-.88,5.44,34.62,34.62,0,0,1-2,5.92,39,39,0,0,1-3.2,5.76,25.31,25.31,0,0,1-4.36,5,20.63,20.63,0,0,1-5.48,3.44,16.52,16.52,0,0,1-6.52,1.28,22,22,0,0,1-9.64-2.2,24,24,0,0,1-8-6.28,31.05,31.05,0,0,1-5.48-9.88,39,39,0,0,1-2-13,26.27,26.27,0,0,1,2-10.6,23.57,23.57,0,0,1,5.24-7.72,22.2,22.2,0,0,1,7.28-4.72A21.82,21.82,0,0,1,180.21,164.5Zm.48,25a3.66,3.66,0,0,0,3.16-2,10,10,0,0,0,1.24-5.28,8.67,8.67,0,0,0-1.4-5.2,3.86,3.86,0,0,0-3-1.92,3.71,3.71,0,0,0-3.24,1.92,9.46,9.46,0,0,0-1.24,5.2,9.87,9.87,0,0,0,1.24,5.28A3.7,3.7,0,0,0,180.69,189.46Z"/><path d="M228.29,196.18a5.45,5.45,0,0,0,.88,2.88c.58,1,1.21,2,1.88,3.16a34.38,34.38,0,0,1,1.88,3.84,12.86,12.86,0,0,1,.88,4.92,9.35,9.35,0,0,1-.92,4.28,8.42,8.42,0,0,1-2.48,3,10.75,10.75,0,0,1-3.64,1.72,17.06,17.06,0,0,1-4.4.56,19.44,19.44,0,0,1-6.76-1,11.25,11.25,0,0,1-4.2-2.56,8.52,8.52,0,0,1-2.12-3.52,13,13,0,0,1-.6-3.8,17.75,17.75,0,0,1,.48-4.16c.32-1.33.66-2.72,1-4.16s.72-3,1-4.68a30.78,30.78,0,0,0,.48-5.72,29.56,29.56,0,0,0-.36-5c-.24-1.39-.51-2.72-.8-4s-.56-2.59-.8-3.92a27.48,27.48,0,0,1-.36-4.8,9.28,9.28,0,0,1,.6-3.28,7.11,7.11,0,0,1,1.92-2.8,9.74,9.74,0,0,1,3.32-1.92,14.19,14.19,0,0,1,4.8-.72,27.6,27.6,0,0,1,5.32.4,16,16,0,0,0,3.08.4,40.83,40.83,0,0,0,5.16-.4,54.87,54.87,0,0,1,7.08-.4,16.68,16.68,0,0,1,4.88.6,8.59,8.59,0,0,1,3.08,1.6,5.59,5.59,0,0,1,1.64,2.32,7.77,7.77,0,0,1,.48,2.68,5.88,5.88,0,0,1-2.08,5,7.77,7.77,0,0,1-4.88,1.6,10.38,10.38,0,0,1-2.64-.32c-1.6-.43-3.07-.77-4.4-1a18,18,0,0,0-3.52-.4c-2.24,0-3.58.77-4,2.32a2.84,2.84,0,0,0,0,1.36,2.41,2.41,0,0,0,.76,1.28,3.85,3.85,0,0,0,1.64.84,6.17,6.17,0,0,0,2.56,0,16,16,0,0,1,3.32-.16,12.41,12.41,0,0,1,3.8.76,8.65,8.65,0,0,1,3.16,2,4.7,4.7,0,0,1,1.32,3.48,6.8,6.8,0,0,1-.28,1.84,5.1,5.1,0,0,1-.88,1.72,4.92,4.92,0,0,1-1.6,1.28,5.41,5.41,0,0,1-2.52.52,14.32,14.32,0,0,1-5.44-1.36,5.36,5.36,0,0,0-2.4-.56,4.29,4.29,0,0,0-3.12,1.24A4.09,4.09,0,0,0,228.29,196.18Z"/><path d="M299.56,185.14a2.39,2.39,0,0,0,1.8-.8,5.46,5.46,0,0,0,1.2-2.24,15.27,15.27,0,0,0,.6-3.32,20.47,20.47,0,0,0-.08-4,10.25,10.25,0,0,1,.52-4.64,8,8,0,0,1,2.2-3.16,9.39,9.39,0,0,1,3.32-1.84,13,13,0,0,1,4-.6,12.3,12.3,0,0,1,4.56.76,8.58,8.58,0,0,1,3.16,2.08,9.66,9.66,0,0,1,1.92,3,9.91,9.91,0,0,1,.76,3.48,23.51,23.51,0,0,1,0,3.16c-.08,1-.17,2-.28,3.12s-.21,2.33-.32,3.72-.18,3-.24,5a18.66,18.66,0,0,0,.64,4.44q.64,2.52,1.4,5.36t1.44,5.88a27.07,27.07,0,0,1,.68,6,9.26,9.26,0,0,1-1.16,4.88,9.12,9.12,0,0,1-3,3.08,12.48,12.48,0,0,1-4.12,1.64,22.25,22.25,0,0,1-4.6.48,16.63,16.63,0,0,1-4-.48,10.2,10.2,0,0,1-3.48-1.56,8.4,8.4,0,0,1-2.48-2.8,10,10,0,0,1-1.12-4.28,11.43,11.43,0,0,1,1-4.8c.7-1.65,1.4-3.23,2.12-4.72a29.32,29.32,0,0,0,1.6-3.88c.35-1.09.12-1.85-.68-2.28a1.48,1.48,0,0,0-1.84.16,10.22,10.22,0,0,0-1.56,1.84,20,20,0,0,1-1.64,2.12,3,3,0,0,1-4.48,0,23,23,0,0,1-1.64-2.12,12.07,12.07,0,0,0-1.48-1.84,1.46,1.46,0,0,0-1.84-.16,1.38,1.38,0,0,0-.8,1.32,5.84,5.84,0,0,0,.48,2.12c.32.8.74,1.71,1.24,2.72s1,2,1.48,3.12a25.38,25.38,0,0,1,1.2,3.24,9.28,9.28,0,0,1,.4,3.16,8.9,8.9,0,0,1-1.08,4.28,8.62,8.62,0,0,1-2.52,2.8,10.08,10.08,0,0,1-3.44,1.56,16.41,16.41,0,0,1-4,.48,22.52,22.52,0,0,1-4.56-.48,12.61,12.61,0,0,1-4.16-1.64,8.75,8.75,0,0,1-4.16-8,27.68,27.68,0,0,1,.68-6q.69-3,1.44-5.88t1.4-5.36a18.16,18.16,0,0,0,.64-4.44c-.05-1.92-.13-3.57-.24-5s-.21-2.63-.32-3.72-.2-2.13-.28-3.12a25.29,25.29,0,0,1,0-3.16,11.12,11.12,0,0,1,.72-3.48,9,9,0,0,1,1.92-3,9.1,9.1,0,0,1,3.2-2.08,12.3,12.3,0,0,1,4.56-.76,12.92,12.92,0,0,1,4,.6,8.89,8.89,0,0,1,3.28,1.84,8,8,0,0,1,2.16,3.16,10.11,10.11,0,0,1,.52,4.64,30.54,30.54,0,0,0,0,4,13.2,13.2,0,0,0,.6,3.32,6.27,6.27,0,0,0,1.2,2.24A2.29,2.29,0,0,0,299.56,185.14Z"/><path d="M350.76,185.7q1.68,0,2.28-2.88c.4-1.92.9-4.75,1.48-8.48a15.86,15.86,0,0,1,.92-3.44,11.22,11.22,0,0,1,1.92-3.2,9.17,9.17,0,0,1,3.16-2.32,11,11,0,0,1,4.64-.88,9.41,9.41,0,0,1,6.08,1.92q2.4,1.92,2.4,6.08a13.34,13.34,0,0,1-.36,3,12.52,12.52,0,0,1-1.28,3.24,20.13,20.13,0,0,1-2.52,3.52,30.84,30.84,0,0,1-4.08,3.84,24.56,24.56,0,0,1-2,1.48,12.81,12.81,0,0,0-1.84,1.52,7.49,7.49,0,0,0-1.36,1.84,4.56,4.56,0,0,0-.44,2.36,13.56,13.56,0,0,0,.6,3.32c.35,1.09.74,2.24,1.16,3.44s.83,2.43,1.2,3.68a18.21,18.21,0,0,1,.72,4,14.71,14.71,0,0,1-.36,4.44,10.27,10.27,0,0,1-2,4.12,10.4,10.4,0,0,1-3.92,3A14.76,14.76,0,0,1,351,220.5a14.59,14.59,0,0,1-6.16-1.16,10.17,10.17,0,0,1-5.88-7.08,15.43,15.43,0,0,1-.36-4.48,19.44,19.44,0,0,1,.72-4c.38-1.25.78-2.48,1.2-3.68s.82-2.35,1.16-3.44a12.68,12.68,0,0,0,.6-3.32,4.37,4.37,0,0,0-.44-2.36,7.25,7.25,0,0,0-1.36-1.84,12.29,12.29,0,0,0-1.84-1.52c-.66-.45-1.32-1-2-1.48q-4.87-4-6.56-7.36a14.07,14.07,0,0,1-1.68-6.24q0-4.16,2.36-6.08a9.41,9.41,0,0,1,6.12-1.92,11,11,0,0,1,4.64.88,9.08,9.08,0,0,1,3.16,2.32,10.78,10.78,0,0,1,1.92,3.2,15.31,15.31,0,0,1,.92,3.44q.88,5.59,1.4,8.48T350.76,185.7Z"/><path d="M418,164.5a22.76,22.76,0,0,1,9.64,2.16,25.64,25.64,0,0,1,8.24,6,28.06,28.06,0,0,1,7.16,21,32.2,32.2,0,0,1-.88,5.44,34.62,34.62,0,0,1-2,5.92,39,39,0,0,1-3.2,5.76,25,25,0,0,1-4.36,5,20.48,20.48,0,0,1-5.48,3.44,16.49,16.49,0,0,1-6.52,1.28,22,22,0,0,1-9.64-2.2,24,24,0,0,1-8-6.28,31.25,31.25,0,0,1-5.48-9.88,39,39,0,0,1-2-13,26.44,26.44,0,0,1,2-10.6,23.57,23.57,0,0,1,5.24-7.72,22.3,22.3,0,0,1,7.28-4.72A21.82,21.82,0,0,1,418,164.5Zm.48,25a3.66,3.66,0,0,0,3.16-2,9.87,9.87,0,0,0,1.24-5.28,8.67,8.67,0,0,0-1.4-5.2,3.83,3.83,0,0,0-3-1.92,3.73,3.73,0,0,0-3.24,1.92,9.46,9.46,0,0,0-1.24,5.2,9.87,9.87,0,0,0,1.24,5.28A3.72,3.72,0,0,0,418.52,189.46Z"/><path d="M481.24,184.42a4,4,0,0,0,1.48,2.84,39.42,39.42,0,0,1,3.24,3.52,24.63,24.63,0,0,1,3.24,5.28,19.4,19.4,0,0,1,1.48,8.2,21.57,21.57,0,0,1-.92,6.4,15.62,15.62,0,0,1-2.68,5.16,12.26,12.26,0,0,1-4.36,3.44,13.63,13.63,0,0,1-6,1.24,47.75,47.75,0,0,1-5.24-.24q-2.11-.24-3.48-.48a19.5,19.5,0,0,1-2.16-.48,4.87,4.87,0,0,0-1.36-.24,3.93,3.93,0,0,0-1.32.24c-.45.16-1,.32-1.6.48s-1.36.32-2.24.48a17.92,17.92,0,0,1-3.16.24,9.76,9.76,0,0,1-6-2.08,8,8,0,0,1-2.16-2.68,8.41,8.41,0,0,1-.84-3.88,26.5,26.5,0,0,1,.48-5.2c.32-1.6.65-3.19,1-4.76s.65-3.16.92-4.76a20.65,20.65,0,0,0,.16-5.2c-.11-1.49-.27-3-.48-4.4s-.43-2.91-.64-4.4-.4-3-.56-4.68-.24-3.37-.24-5.24a12.47,12.47,0,0,1,.44-3.28,7.61,7.61,0,0,1,1.4-2.8,7,7,0,0,1,2.44-1.92,8.07,8.07,0,0,1,3.56-.72,27.94,27.94,0,0,1,3.28.16c.91.11,1.68.21,2.32.32s1.17.21,1.6.32a4.56,4.56,0,0,0,1.12.16,16.37,16.37,0,0,0,3.48-.48,24.65,24.65,0,0,1,5.32-.48,20.49,20.49,0,0,1,4.76.52,10.19,10.19,0,0,1,3.8,1.72,8.36,8.36,0,0,1,2.52,3.08,10.63,10.63,0,0,1,.92,4.68,9.71,9.71,0,0,1-.56,3.6,13,13,0,0,1-1.24,2.36c-.45.67-.87,1.29-1.24,1.88A3.83,3.83,0,0,0,481.24,184.42Zm-16.56-8.32a8.16,8.16,0,0,0,.36,2.64c.24.69.89,1,2,1a3.69,3.69,0,0,0,2.72-1,3.92,3.92,0,0,0,0-5.32,3.74,3.74,0,0,0-2.72-1c-1.07,0-1.72.33-2,1A8.13,8.13,0,0,0,464.68,176.1Zm.16,16.48a9.58,9.58,0,0,0,.4,3.08c.27.77,1,1.16,2.24,1.16a4.28,4.28,0,0,0,3.16-1.16,4.26,4.26,0,0,0-3.16-7.32c-1.23,0-2,.4-2.24,1.2A9.65,9.65,0,0,0,464.84,192.58Z"/><path d="M513.48,164.5a40.62,40.62,0,0,1,7.72.68,23.71,23.71,0,0,1,5.92,1.88,10.36,10.36,0,0,1,3.76,2.92,6.1,6.1,0,0,1,1.32,3.8c0,2-.63,3.45-1.88,4.28A7.71,7.71,0,0,1,526,179.3a13,13,0,0,1-3.28-.44,12,12,0,0,1-3-1.24A7.59,7.59,0,0,0,516,176.5a2.67,2.67,0,0,0-2.2.84,1.9,1.9,0,0,0-.28,2,6.6,6.6,0,0,0,2.24,2.64q1.68,1.27,3.92,2.76c1.49,1,3.07,2.08,4.72,3.28a26.36,26.36,0,0,1,4.56,4.24,21.92,21.92,0,0,1,3.44,5.6,18.35,18.35,0,0,1,1.36,7.32,12.55,12.55,0,0,1-1.4,5.72,15.74,15.74,0,0,1-3.88,4.88,19.45,19.45,0,0,1-5.92,3.4,21.47,21.47,0,0,1-7.52,1.28,28.73,28.73,0,0,1-8-1.08,15.68,15.68,0,0,1-10.68-9.88,26.7,26.7,0,0,1-1.52-9.6,18.75,18.75,0,0,1,.52-4.72,11,11,0,0,1,1.4-3.32,6.45,6.45,0,0,1,2-2,4.18,4.18,0,0,1,5,.32A19.5,19.5,0,0,1,506,192.3a24.51,24.51,0,0,0,2,2,2.44,2.44,0,0,0,2,.72,4,4,0,0,0,1.08-.64,1.86,1.86,0,0,0,.76-1.6,4.14,4.14,0,0,0-1.4-2.52,17.5,17.5,0,0,0-5.32-3.24,27.15,27.15,0,0,1-4.72-2.76,12.4,12.4,0,0,1-2.84-2.88,9.11,9.11,0,0,1-1.36-3,12,12,0,0,1-.36-2.84,8.91,8.91,0,0,1,1.32-4.88,10.44,10.44,0,0,1,3.68-3.44,19.61,19.61,0,0,1,5.6-2.08A32.22,32.22,0,0,1,513.48,164.5Z"/><path d="M561.08,164.5q7,0,10.16,1.8a5.43,5.43,0,0,1,3.12,4.84A4.78,4.78,0,0,1,573,174.9a4.7,4.7,0,0,1-3.2,1.2,7.71,7.71,0,0,1-3.6-1,8.19,8.19,0,0,0-2.24-.8,12.21,12.21,0,0,0-2.4-.24,10,10,0,0,0-4.56,1,3.09,3.09,0,0,0-2,2.84,1.53,1.53,0,0,0,.56,1.4,2.78,2.78,0,0,0,1.52.36,15.4,15.4,0,0,0,3.52-.48l2.2-.4a12.77,12.77,0,0,1,2.44-.24,5.86,5.86,0,0,1,3.08.8q1.32.8,1.32,3.36a4.41,4.41,0,0,1-1.36,3.36,5.54,5.54,0,0,1-3.92,1.28,16.59,16.59,0,0,1-4.4-.72l-2-.56a6,6,0,0,0-1.52-.24,1.58,1.58,0,0,0-1.32.56,3.3,3.3,0,0,0-.44,2,4,4,0,0,0,1.56,3.32,6.26,6.26,0,0,0,4,1.24,11.43,11.43,0,0,0,2.72-.4,18.28,18.28,0,0,1,5.12-.8,9.21,9.21,0,0,1,4.72,1.12,8.71,8.71,0,0,1,3.08,3,13.38,13.38,0,0,1,1.64,4.36,26.29,26.29,0,0,1,.48,5.08,15,15,0,0,1-1.56,7.2,13.13,13.13,0,0,1-4.12,4.64,17.19,17.19,0,0,1-5.76,2.52,27.85,27.85,0,0,1-6.48.76,32,32,0,0,1-10-1.4,14.78,14.78,0,0,1-6.92-4.72,21.24,21.24,0,0,1-4-8.8,60.79,60.79,0,0,1-1.28-13.64,51.49,51.49,0,0,1,1.44-13.28,19.91,19.91,0,0,1,4.36-8.44,15.63,15.63,0,0,1,7.28-4.44A36.13,36.13,0,0,1,561.08,164.5Z"/><path d="M600.84,164.5a40.69,40.69,0,0,1,7.72.68,23.71,23.71,0,0,1,5.92,1.88,10.45,10.45,0,0,1,3.76,2.92,6.1,6.1,0,0,1,1.32,3.8c0,2-.63,3.45-1.88,4.28a7.73,7.73,0,0,1-4.36,1.24,13,13,0,0,1-3.28-.44,11.82,11.82,0,0,1-3-1.24,7.62,7.62,0,0,0-3.68-1.12,2.66,2.66,0,0,0-2.2.84,1.88,1.88,0,0,0-.28,2,6.6,6.6,0,0,0,2.24,2.64c1.12.85,2.42,1.77,3.92,2.76s3.06,2.08,4.72,3.28a26.36,26.36,0,0,1,4.56,4.24,22.21,22.21,0,0,1,3.44,5.6,18.52,18.52,0,0,1,1.36,7.32,12.55,12.55,0,0,1-1.4,5.72,15.89,15.89,0,0,1-3.88,4.88,19.57,19.57,0,0,1-5.92,3.4,21.51,21.51,0,0,1-7.52,1.28,28.73,28.73,0,0,1-8-1.08,15.68,15.68,0,0,1-10.68-9.88,26.49,26.49,0,0,1-1.52-9.6,18.75,18.75,0,0,1,.52-4.72,10.71,10.71,0,0,1,1.4-3.32,6.35,6.35,0,0,1,2-2,4.18,4.18,0,0,1,5,.32,21.22,21.22,0,0,1,2.28,2.16,24.51,24.51,0,0,0,2,2,2.43,2.43,0,0,0,2,.72,4,4,0,0,0,1.08-.64,1.88,1.88,0,0,0,.76-1.6,4.14,4.14,0,0,0-1.4-2.52,17.63,17.63,0,0,0-5.32-3.24,26.78,26.78,0,0,1-4.72-2.76,12.2,12.2,0,0,1-2.84-2.88,9.11,9.11,0,0,1-1.36-3,12,12,0,0,1-.36-2.84,8.91,8.91,0,0,1,1.32-4.88,10.36,10.36,0,0,1,3.68-3.44,19.61,19.61,0,0,1,5.6-2.08A32.22,32.22,0,0,1,600.84,164.5Z"/><path d="M644,164.5a40.69,40.69,0,0,1,7.72.68,23.71,23.71,0,0,1,5.92,1.88,10.45,10.45,0,0,1,3.76,2.92,6.1,6.1,0,0,1,1.32,3.8c0,2-.63,3.45-1.88,4.28a7.73,7.73,0,0,1-4.36,1.24,13,13,0,0,1-3.28-.44,11.82,11.82,0,0,1-3-1.24,7.62,7.62,0,0,0-3.68-1.12,2.66,2.66,0,0,0-2.2.84,1.88,1.88,0,0,0-.28,2,6.6,6.6,0,0,0,2.24,2.64c1.12.85,2.42,1.77,3.92,2.76s3.06,2.08,4.72,3.28a26.36,26.36,0,0,1,4.56,4.24,22.21,22.21,0,0,1,3.44,5.6,18.52,18.52,0,0,1,1.36,7.32,12.55,12.55,0,0,1-1.4,5.72,15.89,15.89,0,0,1-3.88,4.88,19.57,19.57,0,0,1-5.92,3.4,21.51,21.51,0,0,1-7.52,1.28,28.73,28.73,0,0,1-8-1.08,15.68,15.68,0,0,1-10.68-9.88,26.49,26.49,0,0,1-1.52-9.6,18.75,18.75,0,0,1,.52-4.72,10.71,10.71,0,0,1,1.4-3.32,6.35,6.35,0,0,1,2-2,4.18,4.18,0,0,1,5,.32,21.22,21.22,0,0,1,2.28,2.16,24.51,24.51,0,0,0,2,2,2.43,2.43,0,0,0,2,.72,4,4,0,0,0,1.08-.64,1.88,1.88,0,0,0,.76-1.6,4.14,4.14,0,0,0-1.4-2.52,17.63,17.63,0,0,0-5.32-3.24,26.78,26.78,0,0,1-4.72-2.76,12.2,12.2,0,0,1-2.84-2.88,9.11,9.11,0,0,1-1.36-3,12,12,0,0,1-.36-2.84,8.91,8.91,0,0,1,1.32-4.88,10.36,10.36,0,0,1,3.68-3.44,19.61,19.61,0,0,1,5.6-2.08A32.22,32.22,0,0,1,644,164.5Z"/><path d="M680.36,220.5a14,14,0,0,1-6.08-1.16,10.2,10.2,0,0,1-3.8-3,9.67,9.67,0,0,1-1.84-4.12,16.39,16.39,0,0,1-.28-4.44,28.92,28.92,0,0,1,.92-5.36c.45-1.65.93-3.23,1.44-4.72s.94-2.95,1.32-4.36a16.82,16.82,0,0,0,.56-4.28,34.84,34.84,0,0,0-.28-4.48c-.19-1.39-.39-2.73-.6-4s-.39-2.65-.52-4a26.58,26.58,0,0,1,0-4.48,8.32,8.32,0,0,1,1-3.52,7.09,7.09,0,0,1,2-2.32,7.93,7.93,0,0,1,2.72-1.28,12.36,12.36,0,0,1,3.2-.4,12.84,12.84,0,0,1,3.24.4,8,8,0,0,1,2.76,1.28,7.21,7.21,0,0,1,2,2.32,8.63,8.63,0,0,1,1,3.52,28.86,28.86,0,0,1,0,4.48c-.14,1.39-.31,2.73-.52,4s-.42,2.65-.6,4a33.13,33.13,0,0,0-.28,4.48,16.39,16.39,0,0,0,.56,4.28c.37,1.41.81,2.87,1.32,4.36s1,3.07,1.44,4.72a29.78,29.78,0,0,1,.92,5.36,17.24,17.24,0,0,1-.28,4.44,10.46,10.46,0,0,1-1.76,4.12,9.73,9.73,0,0,1-3.6,3A12.82,12.82,0,0,1,680.36,220.5Z"/><path d="M717,164.5a22.76,22.76,0,0,1,9.64,2.16,25.64,25.64,0,0,1,8.24,6,28.06,28.06,0,0,1,7.16,21,31.22,31.22,0,0,1-.88,5.44,34.62,34.62,0,0,1-2,5.92,38.08,38.08,0,0,1-3.2,5.76,24.67,24.67,0,0,1-4.36,5,20.48,20.48,0,0,1-5.48,3.44,16.49,16.49,0,0,1-6.52,1.28,22,22,0,0,1-9.64-2.2,24.15,24.15,0,0,1-8-6.28,31.25,31.25,0,0,1-5.48-9.88,39,39,0,0,1-2-13,26.44,26.44,0,0,1,2-10.6,23.72,23.72,0,0,1,5.24-7.72,22.3,22.3,0,0,1,7.28-4.72A21.86,21.86,0,0,1,717,164.5Zm.48,25a3.65,3.65,0,0,0,3.16-2,9.87,9.87,0,0,0,1.24-5.28,8.6,8.6,0,0,0-1.4-5.2,3.83,3.83,0,0,0-3-1.92,3.73,3.73,0,0,0-3.24,1.92,9.55,9.55,0,0,0-1.24,5.2,10,10,0,0,0,1.24,5.28A3.72,3.72,0,0,0,717.47,189.46Z"/><path d="M757.07,164.5a14,14,0,0,1,3.72.44,8.44,8.44,0,0,1,2.72,1.28,10.36,10.36,0,0,1,2,1.92,18.62,18.62,0,0,1,1.68,2.44,43.08,43.08,0,0,1,3.52,7.32q1.61,4.2,3,7.92t2.68,6.32c.86,1.73,1.71,2.6,2.56,2.6a1.38,1.38,0,0,0,.88-.32,3.26,3.26,0,0,0,.92-2.72,27.85,27.85,0,0,0-.52-4.52c-.32-1.73-.66-3.65-1-5.76a36.76,36.76,0,0,1-.56-6.36,12.53,12.53,0,0,1,2.16-7.64q2.16-2.92,7.2-2.92,5.69,0,7.88,2.92a12.35,12.35,0,0,1,2.2,7.64c0,1.87-.06,3.56-.2,5.08s-.26,3-.4,4.52-.26,3.05-.4,4.68-.2,3.51-.2,5.64a19.13,19.13,0,0,0,.36,3.84q.36,1.76.84,3.48t.84,3.6a22.37,22.37,0,0,1,.36,4.2,10.74,10.74,0,0,1-1.28,5.68A8.77,8.77,0,0,1,795,218.9a10.47,10.47,0,0,1-3.68,1.32,21.23,21.23,0,0,1-3.08.28,12.43,12.43,0,0,1-7.76-2.64,21.32,21.32,0,0,1-5.92-7.76c-1.12-2.35-2.1-4.69-3-7s-1.65-4.48-2.4-6.4A37.38,37.38,0,0,0,767,192q-1-1.8-2-1.8a1.74,1.74,0,0,0-.88.4c-.64.53-.77,1.43-.4,2.68a44.94,44.94,0,0,0,1.68,4.48c.75,1.73,1.48,3.63,2.2,5.68a19.06,19.06,0,0,1,1.08,6.36A11,11,0,0,1,766,217.5q-2.72,3-7.68,3-6.79,0-9.8-2.92t-3-8.92a33.77,33.77,0,0,1,.6-6.24q.6-3.19,1.32-6.12c.48-2,.92-3.77,1.32-5.48a19.56,19.56,0,0,0,.6-4.32c0-1.39,0-2.68-.12-3.88s-.17-2.35-.28-3.44-.2-2.19-.28-3.28a29.45,29.45,0,0,1,0-3.4q.17-4.08,2.68-6A9.18,9.18,0,0,1,757.07,164.5Z"/><path d="M822.19,164.5a40.62,40.62,0,0,1,7.72.68,23.57,23.57,0,0,1,5.92,1.88,10.36,10.36,0,0,1,3.76,2.92,6.1,6.1,0,0,1,1.32,3.8c0,2-.62,3.45-1.88,4.28a7.69,7.69,0,0,1-4.36,1.24,13.11,13.11,0,0,1-3.28-.44,12,12,0,0,1-3-1.24,7.59,7.59,0,0,0-3.68-1.12,2.68,2.68,0,0,0-2.2.84,1.93,1.93,0,0,0-.28,2,6.68,6.68,0,0,0,2.24,2.64q1.68,1.27,3.92,2.76t4.72,3.28a25.65,25.65,0,0,1,4.56,4.24,21.65,21.65,0,0,1,3.44,5.6,18.35,18.35,0,0,1,1.36,7.32,12.42,12.42,0,0,1-1.4,5.72,15.6,15.6,0,0,1-3.88,4.88,19.33,19.33,0,0,1-5.92,3.4,21.47,21.47,0,0,1-7.52,1.28,28.73,28.73,0,0,1-8-1.08A15.68,15.68,0,0,1,805,209.46a26.7,26.7,0,0,1-1.52-9.6,19.23,19.23,0,0,1,.52-4.72,11.21,11.21,0,0,1,1.4-3.32,6.56,6.56,0,0,1,2-2,4.34,4.34,0,0,1,2.24-.68,4.25,4.25,0,0,1,2.76,1,19.5,19.5,0,0,1,2.28,2.16,28,28,0,0,0,2,2,2.45,2.45,0,0,0,2,.72,3.76,3.76,0,0,0,1.08-.64,1.86,1.86,0,0,0,.76-1.6,4.09,4.09,0,0,0-1.4-2.52,17.37,17.37,0,0,0-5.32-3.24,27.15,27.15,0,0,1-4.72-2.76,12.6,12.6,0,0,1-2.84-2.88,9.32,9.32,0,0,1-1.36-3,12,12,0,0,1-.36-2.84,8.91,8.91,0,0,1,1.32-4.88,10.44,10.44,0,0,1,3.68-3.44,19.73,19.73,0,0,1,5.6-2.08A32.29,32.29,0,0,1,822.19,164.5Z"/></svg>