<svg id="Layer_1" data-name="Layer 1" xmlns="http://www.w3.org/2000/svg" viewBox="0 0 1000 1000"><defs><style>.cls-1{fill:#d2928b;}</style></defs><title>yin-yang</title><path class="cls-1" d="M337,609.25c10.48-51.08,44.58-95.11,94.05-112.62,49.21-17.41,103.15-15.08,152-33.85,79.83-30.66,128-115.65,123.74-199.57C702.2,172.28,633.36,106.06,545,93.1,315.1,59.34,100.05,258.49,90.84,483.47q-.34,8.26-.34,16.53c0,214.75,165.31,390.88,375.62,408.11C382.76,825.82,313.1,725.93,337,609.25ZM500,246a42.5,42.5,0,1,1-42.5,42.5A42.5,42.5,0,0,1,500,246Z"/><circle class="cls-1" cx="500" cy="711.5" r="42.5"/></svg>